<?xml version="1.0" encoding="UTF-8"?><svg id="Collier" xmlns="http://www.w3.org/2000/svg" viewBox="0 0 193.23 103.56"><defs><style>.cls-1{fill:#d8d9d9;}</style></defs><path id="Collier-2" class="cls-1" d="M3.55,21.41c-1.09-.1-2.64,5-3.26,9.48-.47,3.34-.16,5.43-.18,9.48-.06,12.98-.15,11.27-.09,13.76.13,5.31.26,10.19,1.39,16.51.7,3.9,1.05,5.84,1.83,7.64,1.93,4.41,5.58,7.92,13.76,12.23,13.71,7.22,26.37,9.27,27.52,9.48,29.52,5.31,52.87,3.28,58.39,2.75,12.25-1.18,21.01-3.08,29.35-4.89,12.68-2.75,26.16-6.53,39.75-13.45,0,0,9.4-4.79,16.2-13.15,4.1-5.04,4.5-8.07,4.59-9.22.1-1.45-.1-2.55,0-6.37.07-2.71.24-5.2.28-5.2.09,0-.26,10.07-.26,10.07-.02,0,.16-5.7.27-13.47.14-9.54.2-14.31.04-17.7-.61-12.58-2.59-18.73-3.7-21.71-1.61-4.34-3.51-7.81-3.97-7.64-.54.19,2.22,4.97,1.22,10.7-1.21,6.95-6.78,11.74-9.48,14.06-1.42,1.23-4.11,3.06-9.48,6.73-2.69,1.84-4.05,2.75-5.17,3.42-4.97,2.95-9.32,4.02-13.78,5.14-18.93,4.77-15.75,4.55-21.1,5.5-9.93,1.77-17.57,3.26-20.48,3.67-13.42,1.87-23.54,2.25-32.41,2.55-25.63.87-37.62-1.2-40.99-1.82-2.82-.52-5.87-1.31-5.89-1.21-.1.41,48.26,13.24,48.41,12.71.11-.38-23.62-9.01-38.8-10.86-5.67-.69-8.3-1.34-13.48-2.9-4.46-1.33-6.69-1.99-9.17-3.67-4.51-3.05-6.83-7.02-7.64-8.56-3.86-7.3-2.43-13.95-3.67-14.06Z"/></svg>