<?xml version="1.0" encoding="UTF-8" standalone="no"?>
<!-- Created with Inkscape (http://www.inkscape.org/) -->
<svg
   xmlns:dc="http://purl.org/dc/elements/1.1/"
   xmlns:cc="http://creativecommons.org/ns#"
   xmlns:rdf="http://www.w3.org/1999/02/22-rdf-syntax-ns#"
   xmlns:svg="http://www.w3.org/2000/svg"
   xmlns="http://www.w3.org/2000/svg"
   xmlns:sodipodi="http://sodipodi.sourceforge.net/DTD/sodipodi-0.dtd"
   xmlns:inkscape="http://www.inkscape.org/namespaces/inkscape"
   width="601"
   height="301"
   id="svg2"
   sodipodi:version="0.32"
   inkscape:version="0.46"
   version="1.0"
   sodipodi:docname="Logo_Pyrénées.svg"
   inkscape:output_extension="org.inkscape.output.svg.inkscape">
  <defs
     id="defs4">
    <inkscape:perspective
       sodipodi:type="inkscape:persp3d"
       inkscape:vp_x="0 : 526.18109 : 1"
       inkscape:vp_y="0 : 1000 : 0"
       inkscape:vp_z="744.09448 : 526.18109 : 1"
       inkscape:persp3d-origin="372.04724 : 350.78739 : 1"
       id="perspective10" />
    <inkscape:perspective
       id="perspective2452"
       inkscape:persp3d-origin="98.962639 : 65.619334 : 1"
       inkscape:vp_z="197.92528 : 98.429001 : 1"
       inkscape:vp_y="0 : 1000 : 0"
       inkscape:vp_x="0 : 98.429001 : 1"
       sodipodi:type="inkscape:persp3d" />
    <inkscape:perspective
       id="perspective2501"
       inkscape:persp3d-origin="372.04724 : 350.78739 : 1"
       inkscape:vp_z="744.09448 : 526.18109 : 1"
       inkscape:vp_y="0 : 1000 : 0"
       inkscape:vp_x="0 : 526.18109 : 1"
       sodipodi:type="inkscape:persp3d" />
    <inkscape:perspective
       id="perspective2510"
       inkscape:persp3d-origin="372.04724 : 350.78739 : 1"
       inkscape:vp_z="744.09448 : 526.18109 : 1"
       inkscape:vp_y="0 : 1000 : 0"
       inkscape:vp_x="0 : 526.18109 : 1"
       sodipodi:type="inkscape:persp3d" />
  </defs>
  <sodipodi:namedview
     id="base"
     pagecolor="#ffffff"
     bordercolor="#666666"
     borderopacity="1.0"
     inkscape:pageopacity="0.0"
     inkscape:pageshadow="2"
     inkscape:zoom="0.7"
     inkscape:cx="436.15529"
     inkscape:cy="240.46972"
     inkscape:document-units="px"
     inkscape:current-layer="layer4"
     showgrid="false"
     showguides="true"
     inkscape:guide-bbox="true"
     showborder="true"
     inkscape:window-width="1280"
     inkscape:window-height="968"
     inkscape:window-x="0"
     inkscape:window-y="22">
    <sodipodi:guide
       orientation="1,0"
       position="208.57143,94.285714"
       id="guide3175" />
    <sodipodi:guide
       orientation="1,0"
       position="248.57143,89.642857"
       id="guide3188" />
  </sodipodi:namedview>
  <metadata
     id="metadata7">
    <rdf:RDF>
      <cc:Work
         rdf:about="">
        <dc:format>image/svg+xml</dc:format>
        <dc:type
           rdf:resource="http://purl.org/dc/dcmitype/StillImage" />
      </cc:Work>
    </rdf:RDF>
  </metadata>
  <g
     inkscape:groupmode="layer"
     id="layer4"
     inkscape:label="Rectangles_de_fond"
     style="display:inline"
     transform="translate(-202.71498,-401.07581)">
    <rect
       style="fill:#ffffff;fill-opacity:1;fill-rule:evenodd;stroke:#000000;stroke-width:1;stroke-linecap:butt;stroke-linejoin:miter;stroke-miterlimit:4;stroke-dasharray:none;stroke-opacity:1"
       id="rect3287"
       width="599.87122"
       height="299.74454"
       x="203.71498"
       y="401.33127" />
    <rect
       y="401.07581"
       x="202.71498"
       height="300"
       width="306.98785"
       id="rect3289"
       style="fill:#099469;fill-opacity:1;fill-rule:evenodd;stroke:#000000;stroke-width:0;stroke-linecap:butt;stroke-linejoin:miter;stroke-miterlimit:4;stroke-dasharray:none;stroke-opacity:1" />
    <text
       xml:space="preserve"
       style="font-size:48px;font-style:normal;font-variant:normal;font-weight:normal;font-stretch:normal;text-align:start;line-height:80.00000119%;writing-mode:lr-tb;text-anchor:start;fill:#ffffff;fill-opacity:1;stroke:none;stroke-width:1px;stroke-linecap:butt;stroke-linejoin:miter;stroke-opacity:1;font-family:Arial;-inkscape-font-specification:Arial"
       x="414.14355"
       y="521.07581"
       id="text3172"
       sodipodi:linespacing="80.000001%"><tspan
         sodipodi:role="line"
         id="tspan3174"
         x="414.14355"
         y="521.07581">Les</tspan></text>
    <text
       xml:space="preserve"
       style="font-size:48px;font-style:normal;font-variant:normal;font-weight:normal;font-stretch:normal;text-align:start;line-height:80.00000119%;writing-mode:lr-tb;text-anchor:start;fill:#099469;fill-opacity:1;stroke:none;stroke-width:1px;stroke-linecap:butt;stroke-linejoin:miter;stroke-opacity:1;font-family:Arial;-inkscape-font-specification:Arial"
       x="315.71429"
       y="124.28571"
       id="text3176"
       sodipodi:linespacing="80.000001%"
       transform="translate(202.71498,401.07581)"><tspan
         sodipodi:role="line"
         id="tspan3178"
         x="315.71429"
         y="124.28571">Pyrénées</tspan></text>
  </g>
  <g
     inkscape:label="Logo_SVG_parc"
     inkscape:groupmode="layer"
     id="layer1"
     transform="translate(-202.71498,-401.07581)"
     style="display:inline"
     sodipodi:insensitive="true">
    <path
       id="path2384"
       d="M 340.00048,636.97262 C 339.48765,636.46397 337.70534,635.77295 336.03977,635.43705 C 333.84514,634.99442 332.93179,634.27886 332.72199,632.83773 C 332.36369,630.37663 331.1181,630.27883 329.8587,632.6129 C 328.76281,634.64395 326.2139,634.1276 326.22241,631.87627 C 326.22548,631.06426 326.837,629.24165 327.58134,627.82604 C 328.32568,626.41042 328.93469,624.69187 328.93469,624.00702 C 328.93469,622.50751 330.39139,622.3634 331.27148,623.77584 C 331.70274,624.46795 332.16761,624.32135 332.73596,623.31402 C 333.31212,622.29284 333.13395,621.40706 332.15762,620.43866 C 331.38156,619.6689 330.7466,618.47983 330.7466,617.79626 C 330.7466,617.0058 329.92216,617.37113 328.48171,618.79987 C 327.23603,620.03544 326.21683,621.63452 326.21683,622.3534 C 326.21683,623.07227 325.40147,623.66044 324.40492,623.66044 C 323.40837,623.66044 322.59301,623.14376 322.59301,622.51226 C 322.59301,621.21723 320.12145,618.89973 317.79664,618.01487 C 316.93598,617.6873 316.25133,616.47412 316.25133,615.27663 C 316.25133,613.45841 315.89596,613.19395 313.94885,613.56313 C 312.68248,613.80324 311.71156,613.64608 311.79125,613.21387 C 311.87093,612.78166 311.88785,611.28306 311.82884,609.88363 L 311.72156,607.33922 L 308.32423,609.41389 L 304.9269,611.48858 L 306.51232,609.06951 C 307.3843,607.73901 308.09774,606.46956 308.09774,606.2485 C 308.09774,606.02743 306.43325,605.56765 304.39888,605.22675 C 301.16959,604.68558 300.76295,604.35822 301.19568,602.64808 C 301.53474,601.30812 301.12911,600.34102 299.91179,599.58696 C 298.93305,598.98068 298.13224,597.87286 298.13224,597.12511 C 298.13224,596.37736 297.11305,595.30497 295.86736,594.74201 C 292.74824,593.33239 293.02041,592.13919 296.31211,592.79218 C 299.01515,593.3284 299.01929,593.32272 298.01415,590.46279 C 297.45997,588.886 296.2955,587.15543 295.42641,586.61709 C 293.54619,585.45242 294.07595,581.96834 296.02072,582.70855 C 296.7215,582.97528 297.5269,582.59379 297.81049,581.86078 C 298.733,579.47628 300.63662,580.33206 300.14015,582.90806 C 299.82935,584.52066 300.00814,585.08783 300.69462,584.66702 C 301.25186,584.32543 302.40289,584.85116 303.25245,585.83532 C 304.10203,586.81949 305.13209,587.41938 305.54148,587.16842 C 305.95088,586.91745 306.28583,587.89957 306.28583,589.3509 C 306.28583,590.80222 306.89735,592.49307 307.64477,593.10833 C 308.78011,594.04292 309.0037,593.91317 309.0037,592.31976 C 309.0037,591.27079 309.41138,590.41255 309.90965,590.41255 C 310.40793,590.41255 311.08575,590.31145 311.41593,590.1879 C 311.7461,590.06435 312.06497,591.06736 312.12454,592.41683 C 312.22985,594.80322 314.71876,597.51497 316.8567,597.57271 C 318.98692,597.63023 320.78145,596.47344 320.79497,595.03402 C 320.80261,594.222 321.17549,592.98304 321.62361,592.28079 C 322.31722,591.19382 322.78667,591.23031 324.78058,592.52615 C 327.72403,594.43909 327.74577,595.61365 324.8579,596.70269 C 322.04295,597.76423 321.697,601.19564 324.40492,601.19564 C 325.40147,601.19564 326.21683,601.60001 326.21683,602.09424 C 326.21683,602.58846 326.58634,602.99283 327.03797,602.99283 C 327.4896,602.99283 327.65792,602.22974 327.41202,601.29706 C 327.16612,600.36439 327.37134,599.35216 327.86806,599.04766 C 329.32398,598.15517 331.80159,599.5143 331.26186,600.90939 C 330.9897,601.61285 331.42551,603.1852 332.23033,604.40351 C 333.42838,606.21712 333.93572,606.41932 335.02936,605.51906 C 335.76403,604.9143 336.90161,604.34139 337.55733,604.24593 C 338.94443,604.04401 340.05651,607.59024 339.25543,609.66086 C 338.95343,610.44148 339.15763,611.08016 339.70922,611.08016 C 340.26081,611.08016 340.7121,609.63275 340.7121,607.86369 C 340.7121,604.78969 340.82726,604.67231 343.31223,605.21366 C 345.48224,605.68641 346.02581,605.43807 346.59808,603.71252 L 347.2838,601.64494 L 347.69523,603.74591 C 348.04148,605.51399 348.48974,605.75534 350.52457,605.26926 C 353.3069,604.6046 355.20737,602.49545 355.20737,600.07228 C 355.20737,599.14912 355.61505,598.64372 356.11332,598.94917 C 356.6116,599.25462 357.01928,600.31833 357.01928,601.31298 C 357.01928,602.75684 357.52156,603.06319 359.51065,602.83249 C 360.88091,602.67356 362.47829,601.93762 363.0604,601.19706 C 363.6425,600.4565 364.41755,600.14694 364.78272,600.50915 C 365.14791,600.87136 365.93937,600.49939 366.54155,599.68256 C 367.54585,598.32026 367.91286,598.36686 370.97809,600.2459 C 374.22014,602.2333 374.37413,602.24557 376.1433,600.6575 C 377.70723,599.25367 378.08597,599.20744 378.80362,600.33278 C 379.26384,601.05447 379.64664,601.94822 379.65426,602.31889 C 379.68104,603.62009 382.65153,602.97614 383.79833,601.42053 C 384.80864,600.0501 385.33885,599.99102 387.92824,600.96047 C 390.10723,601.77626 391.06669,601.80365 391.52803,601.06326 C 391.87878,600.50034 393.11445,600.29216 394.32143,600.59264 C 397.02752,601.2663 399.23923,598.40674 397.87551,595.99747 C 397.09345,594.61581 396.94543,594.60464 396.44609,595.88968 C 396.02326,596.97779 394.97385,597.23238 392.09027,596.94636 C 388.00987,596.54164 386.29165,595.8041 389.42918,595.8041 C 390.47936,595.8041 391.59056,595.39973 391.89852,594.9055 C 392.20647,594.41128 392.02669,594.00692 391.49901,594.00692 C 390.97133,594.00692 390.53959,593.14867 390.53959,592.09971 C 390.53959,590.45288 390.34158,590.35549 389.08926,591.38637 C 388.29158,592.04301 387.08635,592.6607 386.41098,592.75901 C 384.8495,592.98633 382.95718,590.7782 383.69656,589.59158 C 384.00488,589.09676 382.91886,588.00295 381.28318,587.1609 C 377.51303,585.22002 379.34687,584.48829 383.58222,586.24355 C 386.68788,587.53063 386.77171,587.50979 387.32768,585.31265 C 387.77392,583.54914 388.1598,583.28205 389.11973,584.07226 C 390.03056,584.82203 391.2894,584.75592 394.04728,583.81348 C 397.18996,582.73954 397.90833,582.73512 398.78622,583.78433 C 399.93924,585.16233 404.64891,585.46877 405.42916,584.21656 C 406.15678,583.04881 403.08643,582.1012 402.01583,583.16309 C 400.67141,584.49659 398.54261,581.34143 399.78497,579.85664 C 400.30306,579.23747 401.30134,578.73086 402.00338,578.73086 C 402.70542,578.73086 403.51447,578.12431 403.80128,577.38297 C 404.43399,575.74756 406.52187,575.60762 407.15272,577.15833 C 407.4257,577.82934 407.63847,577.64845 407.68119,576.70903 C 407.77942,574.54936 410.14955,574.72037 410.73188,576.92913 C 411.21999,578.78047 413.74534,580.2752 414.73188,579.29667 C 415.03953,578.99154 414.55108,577.93066 413.64645,576.93918 C 412.74182,575.9477 412.34661,575.13649 412.76821,575.13649 C 413.18981,575.13649 412.78303,574.59129 411.86426,573.92492 C 410.07652,572.62831 410.63582,570.64354 412.78894,570.64354 C 413.50694,570.64354 414.0944,570.30657 414.0944,569.89471 C 414.0944,568.41882 412.96596,568.07614 410.79808,568.89367 C 407.82537,570.01471 406.71824,567.48777 409.3738,565.64286 C 410.39639,564.93243 411.50055,563.1432 411.82747,561.66681 C 412.15441,560.19041 412.7982,558.75177 413.25815,558.46982 C 415.15266,557.30846 413.96692,555.46915 411.15005,555.19976 C 408.33457,554.93051 408.20569,554.75101 408.20569,551.09886 C 408.20569,548.64229 407.80163,547.27965 407.07325,547.27985 C 405.74168,547.2802 405.6509,546.43017 406.79159,544.64216 C 407.47931,543.56416 407.853,543.54827 409.06449,544.54556 C 409.86192,545.20198 410.79847,545.45728 411.14571,545.11286 C 411.49294,544.76845 411.20956,544.13879 410.51598,543.71362 C 409.45867,543.06547 409.50559,542.56111 410.80635,540.59202 C 411.65965,539.30032 412.10191,537.83281 411.78917,537.33089 C 411.47643,536.82898 411.68312,535.86548 412.24849,535.1898 C 413.00136,534.29001 413.00644,533.79577 412.26747,533.34277 C 411.57066,532.91562 411.72612,532.21174 412.76996,531.0677 C 414.20771,529.49191 414.15538,529.42488 411.69653,529.69296 C 410.27484,529.84795 408.90781,529.67714 408.65867,529.31336 C 407.84556,528.12611 404.1289,527.335 404.1289,528.34917 C 404.1289,528.87669 403.71474,529.30832 403.20856,529.30832 C 402.70237,529.30832 402.37453,528.18473 402.48002,526.81148 C 402.74552,523.35543 401.63916,521.71174 399.97145,523.08456 C 399.2684,523.66331 398.69317,524.78052 398.69317,525.56724 C 398.69317,526.83932 398.52332,526.82917 397.15862,525.47557 C 395.73638,524.06489 395.50413,524.06117 393.98513,525.42468 C 392.42415,526.82586 392.39216,526.76501 393.31276,524.14567 C 393.84437,522.63306 395.06716,520.68828 396.03008,519.82394 C 397.43297,518.56466 397.56349,517.99267 396.68695,516.94509 C 396.08532,516.22606 395.16947,514.803 394.65175,513.78274 C 393.44449,511.40364 391.44554,510.7321 391.44554,512.70562 C 391.44554,513.66274 390.96007,514.03975 390.13298,513.72496 C 389.35111,513.42736 388.60459,513.89989 388.28659,514.89369 C 387.99297,515.81127 387.17751,516.78095 386.47444,517.04855 C 385.57843,517.38958 385.36016,517.07849 385.7446,516.00832 C 386.04625,515.1686 385.38438,515.59356 384.27377,516.95268 C 381.94538,519.80209 379.05031,520.45069 380.479,517.80286 C 380.98302,516.86874 381.02186,515.64946 380.57065,514.92534 C 379.5465,513.28168 380.5535,511.67127 381.6105,513.26238 C 382.26235,514.2436 382.68741,514.13418 383.78833,512.70175 C 385.5708,510.38255 385.1389,508.40895 382.60719,507.30439 C 381.48898,506.81653 380.57409,505.77236 380.57409,504.98403 C 380.57409,504.13156 379.30171,503.16336 377.43439,502.59493 L 374.29467,501.63915 L 374.40498,504.54945 C 374.53866,508.07624 373.58143,509.82863 371.87588,509.17946 C 371.14465,508.90115 370.60859,509.25533 370.60859,510.01679 C 370.60859,510.74263 370.20091,511.33648 369.70264,511.33648 C 368.35598,511.33648 368.60647,508.41136 370.13896,506.2412 C 371.51551,504.29187 371.26691,503.7787 368.06238,501.95453 C 366.46787,501.04687 367.14435,511.22218 368.74368,512.20259 C 369.5807,512.71569 369.52283,513.00982 368.50893,513.39573 C 367.64573,513.72428 366.95232,513.20534 366.57481,511.94825 C 365.99368,510.01314 365.9768,510.0115 365.22795,511.81698 C 364.81085,512.82258 363.89666,514.11698 363.19642,514.69342 C 362.13585,515.56645 361.98419,515.2236 362.28823,512.64039 C 362.48898,510.93478 362.29156,509.5393 361.84951,509.5393 C 360.67985,509.5393 358.14371,512.69268 357.77147,514.60986 C 357.59545,515.51639 356.74269,516.39348 355.87643,516.55895 C 354.63557,516.79598 354.30128,516.22623 354.30077,513.87349 C 354.30022,511.26123 353.99297,510.86951 351.84776,510.74598 C 348.27343,510.54017 347.17072,512.55098 348.26257,517.28358 C 349.20707,521.37755 348.10179,525.71395 346.11378,525.71395 C 345.57541,525.71395 345.42582,525.2471 345.78136,524.67652 C 346.18186,524.03376 346.02988,523.88301 345.38185,524.28026 C 343.89555,525.19137 344.08628,526.61255 345.69485,526.61255 C 347.20632,526.61255 347.44747,528.19888 346.22669,530.11112 C 345.74347,530.86802 344.64109,531.15928 343.4393,530.84756 C 341.62308,530.37647 341.57092,530.46304 342.83577,531.84932 C 343.69692,532.79314 344.11779,534.64783 343.94916,536.75581 C 343.59012,541.24404 342.94634,541.68733 341.74624,538.27271 C 341.17575,536.64948 340.34807,535.71555 339.78559,536.06035 C 339.09811,536.48178 339.11334,537.01695 339.83744,537.88235 C 340.62502,538.8236 340.42898,539.56939 338.9918,541.0995 C 337.61432,542.56602 337.3761,543.39633 338.08854,544.24779 C 338.62074,544.88384 338.79318,545.82632 338.47174,546.3422 C 338.15029,546.85807 338.52288,547.28015 339.2997,547.28015 C 341.03811,547.28015 341.0564,548.81782 339.35317,551.77311 C 337.64994,554.7284 337.66823,556.26607 339.40664,556.26607 C 340.18346,556.26607 340.58171,555.8852 340.29166,555.41969 C 339.83429,554.68568 344.50505,549.07733 345.57372,549.07733 C 345.78982,549.07733 345.96663,550.49261 345.96663,552.2224 C 345.96663,554.8141 345.63331,555.36747 344.07216,555.36747 C 342.21456,555.36747 342.2119,555.39228 343.93518,556.64214 C 345.62588,557.86836 345.59804,557.94034 343.20238,558.53672 C 340.4908,559.21176 340.28451,559.62173 341.63192,561.65761 C 342.42489,562.85573 342.62304,562.85573 343.41523,561.65761 C 343.90541,560.91628 344.46483,559.90536 344.6584,559.41114 C 344.85196,558.91691 346.40729,559.82721 348.11469,561.43403 C 350.53087,563.70788 351.46027,564.11624 352.30724,563.27614 C 353.15423,562.43604 353.39546,562.59517 353.39546,563.99396 C 353.39546,564.98241 352.94192,566.24099 352.38758,566.79082 C 350.46064,568.70211 351.90492,569.79044 354.55592,568.42477 C 355.9416,567.71094 357.67424,567.35486 358.40623,567.63347 C 359.13823,567.91209 359.73714,567.73235 359.73714,567.23406 C 359.73714,565.87528 366.28347,562.19471 368.21735,562.4662 C 369.29626,562.61767 369.74459,562.27219 369.46304,561.50627 C 368.99885,560.24358 368.54272,560.21835 365.62584,561.29411 C 363.84326,561.95153 363.84162,561.93107 365.52438,560.02966 C 367.00367,558.35817 367.06489,557.89146 365.97736,556.57639 C 364.84838,555.21119 364.93733,555.11143 366.84789,555.60005 C 368.62267,556.05397 368.89992,555.85609 368.51813,554.408 C 367.95057,552.25527 368.03765,552.25723 370.59249,554.45504 C 372.4019,556.01156 372.50594,556.43293 371.41058,557.76835 C 370.30175,559.12015 370.34887,559.22641 371.81513,558.68079 C 372.72786,558.34114 374.04003,558.06325 374.73104,558.06325 C 375.47565,558.06325 375.77502,557.51417 375.46598,556.71537 C 375.13577,555.86184 375.47848,555.36747 376.40037,555.36747 C 377.98568,555.36747 378.36664,553.98924 377.01103,553.15824 C 376.54617,552.87328 376.19322,550.92868 376.22669,548.8369 C 376.34833,541.23519 376.30034,541.11689 373.09996,541.12785 C 368.49309,541.14364 364.21398,540.00474 364.87775,538.93947 C 365.24717,538.34659 364.90274,538.20477 363.96255,538.56261 C 363.01133,538.92468 362.455,538.6849 362.455,537.91288 C 362.455,536.79836 359.87421,535.16298 359.18858,535.84303 C 359.02951,536.00081 358.28299,537.5267 357.52966,539.2339 C 356.2392,542.15832 356.12591,542.21947 355.57136,540.29087 C 355.14088,538.79377 354.52615,538.38758 353.28316,538.77888 C 350.14477,539.76687 351.54492,537.59038 355.87988,534.74235 C 359.56892,532.3187 360.68945,532.00467 363.80698,532.52077 C 365.80391,532.85135 368.52089,533.88196 369.84473,534.81101 C 372.21907,536.47731 372.24527,536.47583 371.77746,534.70145 C 371.04811,531.93506 373.10648,532.57 374.68538,535.59846 C 375.55765,537.27153 376.85534,538.34015 378.10598,538.41528 C 379.2143,538.48186 381.14031,538.58296 382.386,538.63993 C 383.63168,538.69691 384.75586,538.94571 384.88417,539.19283 C 385.42531,540.23505 382.79744,545.48297 381.7344,545.48297 C 381.09623,545.48297 380.57409,546.03149 380.57409,546.70189 C 380.57409,547.47724 381.55837,547.88599 383.27887,547.82513 C 385.34096,547.75218 385.8731,547.38226 385.51835,546.2683 C 385.20929,545.29778 385.72276,544.63346 387.04758,544.28982 C 389.76477,543.58503 390.72484,544.35918 389.63608,546.37702 C 389.13646,547.30299 388.72768,548.88322 388.72768,549.88864 C 388.72768,551.14441 388.30225,551.55478 387.36875,551.19947 C 386.58952,550.90288 385.96615,551.20242 385.90746,551.90162 C 385.4217,557.68834 385.46351,558.96184 386.1392,558.96184 C 386.56631,558.96184 386.91577,560.01601 386.91577,561.30447 C 386.91577,562.94843 386.53574,563.50244 385.64151,563.16207 C 384.83075,562.85349 383.95961,563.65321 383.24655,565.36068 C 382.49217,567.16714 381.29896,568.20833 379.59598,568.54616 C 374.84836,569.48796 375.38532,573.0047 380.60413,575.14883 C 384.26656,576.65353 383.99501,578.1103 380.13542,577.66338 C 378.39932,577.46234 376.84392,577.69943 376.67897,578.19026 C 376.51403,578.68107 374.93067,578.19475 373.16041,577.10957 C 369.39282,574.8 368.79668,574.70145 368.79668,576.38824 C 368.79668,577.0767 368.18516,577.87274 367.43775,578.15722 C 366.69034,578.4417 366.07882,578.23952 366.07882,577.70793 C 366.07882,577.17633 365.45187,576.98003 364.6856,577.27168 C 363.89876,577.57116 363.07184,577.23195 362.78569,576.49232 C 362.34307,575.34825 362.11017,575.35016 360.94336,576.50747 C 359.0937,578.3421 357.26143,578.1629 356.11332,576.03508 C 354.99776,573.96757 353.39546,573.64601 353.39546,575.48965 C 353.39546,576.17811 352.7506,576.98684 351.96243,577.28683 C 349.88653,578.07695 349.77164,578.01279 349.77164,576.06328 C 349.77164,574.81047 349.34844,574.45538 348.32127,574.84634 C 347.52358,575.14995 346.51062,574.83399 346.07027,574.14419 C 345.51063,573.26755 345.26544,573.76913 345.25574,575.81044 C 345.24811,577.41667 344.83419,578.73086 344.33592,578.73086 C 343.83764,578.73086 343.42996,577.92466 343.42996,576.93931 C 343.42996,574.57328 340.1157,575.01051 337.95095,577.66215 L 336.38136,579.58474 L 335.98888,576.93233 C 335.77302,575.4735 335.96192,573.91736 336.40867,573.47424 C 336.88773,572.99907 336.35168,572.45218 335.10193,572.14105 C 333.83781,571.82635 332.56356,570.51156 331.94346,568.88206 C 330.77575,565.81361 327.71095,565.13546 326.70581,567.72311 C 326.1337,569.19598 326.03474,569.18919 325.14456,567.61611 C 324.43832,566.36809 324.50657,565.74503 325.41016,565.19112 C 326.32482,564.63042 326.08803,564.24823 324.45471,563.64893 C 323.09573,563.15029 322.6677,562.61649 323.31076,562.22229 C 324.03381,561.77905 323.81225,560.73665 322.56309,558.70459 C 319.98956,554.51813 320.18224,552.9744 323.04599,554.83555 C 325.7418,556.58755 326.08928,555.11236 323.49897,552.9125 C 320.87324,550.68255 321.04427,548.52886 323.70055,550.37427 C 324.80796,551.14363 326.23485,551.77311 326.87139,551.77311 C 329.00022,551.77311 328.06046,550.27588 324.8579,548.5652 C 323.11394,547.63365 321.68706,546.58794 321.68706,546.2414 C 321.68706,545.89486 321.0515,544.98095 320.27472,544.21048 C 319.49793,543.44 318.72905,541.69256 318.56611,540.32727 C 318.40315,538.96199 318.22335,537.54167 318.16654,537.17099 C 318.10972,536.80032 317.60802,536.49705 317.05162,536.49705 C 316.47603,536.49705 316.25048,537.29535 316.52833,538.3492 C 317.26109,541.12853 314.52045,541.73465 312.4864,539.24312 C 310.57504,536.90187 310.07149,533.60235 311.90275,535.41874 C 313.84412,537.34433 315.43284,536.70628 314.81144,534.25057 C 314.3883,532.57832 314.60181,532.00409 315.64668,532.00409 C 316.4187,532.00409 317.30231,532.40846 317.61026,532.90269 C 318.60717,534.50262 320.01401,533.85368 319.43968,532.05882 C 319.05372,530.85263 319.45316,530.01323 320.73756,529.33143 C 322.64856,528.31701 323.16057,525.29795 321.78643,523.14689 C 321.2435,522.297 320.8199,522.22895 320.3879,522.92224 C 319.44312,524.43851 318.32612,524.11231 317.8142,522.17064 C 317.54835,521.16227 318.0241,519.82286 318.94021,519.00053 C 320.39956,517.69057 320.64863,517.74045 322.05085,519.62342 L 323.57512,521.67029 L 323.01943,518.97451 C 321.43735,511.2995 321.45142,510.47063 323.17443,509.8386 C 324.10034,509.49898 325.1199,508.83359 325.44013,508.35998 C 325.76035,507.88637 327.02994,507.74971 328.26145,508.05629 C 330.08698,508.51073 330.43883,509.07262 330.16643,511.09833 L 329.83231,513.58296 L 330.82911,511.07857 C 331.90399,508.37799 332.97817,508.37783 338.32482,511.07749 C 340.00571,511.92622 341.23066,512.08017 341.80108,511.51437 C 342.37152,510.94858 342.33483,510.42799 341.69699,510.03699 C 339.90192,508.93658 340.63956,506.84352 342.82243,506.84352 C 344.42827,506.84352 344.91556,506.36018 344.86083,504.82169 C 344.81936,503.65622 345.26855,502.89502 345.92134,503.02452 C 347.42645,503.32309 347.34932,502.77207 345.65006,501.08662 C 344.63906,500.08383 344.4138,498.8089 344.84493,496.52948 C 345.54757,492.8145 347.30166,492.21811 346.88524,495.83578 C 346.58843,498.41439 346.92007,498.77493 349.54515,498.72762 C 350.97969,498.70176 350.96322,498.5735 349.372,497.37974 C 348.40478,496.65411 347.9971,496.03314 348.46604,495.99978 C 348.93498,495.96643 350.64362,495.76765 352.26302,495.55805 C 355.08546,495.19274 356.21806,496.23339 354.28664,497.41737 C 353.25182,498.05172 353.94981,499.6548 355.26084,499.6548 C 355.7297,499.6548 356.11332,499.09879 356.11332,498.41923 C 356.11332,497.73967 357.33636,496.94105 358.83118,496.64451 C 362.01386,496.01315 362.18913,495.28358 359.7755,492.71391 C 358.00853,490.83271 358.01063,490.82006 360.34244,489.30462 C 362.27307,488.04991 362.8192,487.99685 363.46105,489.00155 C 364.50067,490.62893 364.46405,491.56747 363.36096,491.56747 C 362.86268,491.56747 362.455,492.17402 362.455,492.91536 C 362.455,495.2168 366.04093,494.47907 366.99863,491.9806 C 367.68413,490.19225 368.21876,489.86899 369.46759,490.48774 C 371.86757,491.67687 378.76218,491.80512 378.76218,490.66063 C 378.76218,489.99157 379.26465,489.95989 380.34703,490.56071 C 381.49261,491.19658 382.37021,491.04696 383.51327,490.02091 C 384.98098,488.70345 385.1354,488.80346 385.66142,491.41217 C 386.35982,494.87582 388.36332,496.78126 389.80414,495.35214 C 390.35396,494.80679 391.90874,494.57977 393.25919,494.84767 C 394.99492,495.192 395.8772,494.91437 396.26947,493.9004 C 397.10631,491.73737 400.20447,492.13558 400.84002,494.48789 C 401.77957,497.96528 401.47942,498.7562 399.22025,498.7562 C 398.01531,498.7562 396.38459,499.00165 395.59643,499.30164 C 392.98022,500.29741 394.11326,501.45198 397.70669,501.45198 C 400.53149,501.45198 401.7137,500.90535 403.5369,498.7562 C 405.97359,495.8839 407.75272,495.26863 407.75272,497.29828 C 407.75272,497.97911 408.3603,499.03629 409.10289,499.64758 C 409.99388,500.38103 410.26198,501.56448 409.89121,503.12733 L 409.32937,505.49564 L 411.23884,503.53274 C 413.01956,501.70221 413.32986,501.6597 415.841,502.90223 C 417.56318,503.75439 418.3518,504.70477 418.02903,505.53906 C 417.71693,506.34578 418.07987,506.84352 418.98022,506.84352 C 420.57983,506.84352 421.00665,503.70499 419.53012,502.79987 C 417.94296,501.82692 418.55673,499.6548 420.41882,499.6548 C 421.63944,499.6548 422.38922,500.44519 422.76295,502.12592 C 423.06517,503.48504 423.41137,504.99757 423.5323,505.4871 C 423.65323,505.97663 424.33101,505.19776 425.03848,503.75627 C 425.74594,502.31478 426.9363,500.95389 427.68371,500.73206 C 428.72942,500.42169 428.80047,500.58448 427.99198,501.43825 C 427.23863,502.23381 427.20271,503.29151 427.86508,505.17613 C 428.65517,507.42416 428.42741,508.34619 426.29103,511.54823 C 424.78825,513.80065 424.19314,515.42421 424.79713,515.6239 C 425.40266,515.82409 425.58622,517.02112 425.2597,518.64043 C 424.81116,520.86494 425.05012,521.41109 426.65402,521.82712 C 428.87018,522.40195 429.17285,524.11524 427.32672,525.63494 C 426.35013,526.43885 425.7235,526.33707 424.56305,525.18605 C 423.16606,523.80042 422.97357,523.81381 421.77802,525.37969 C 420.17524,527.47894 420.13157,528.1583 421.56852,528.638 C 422.45627,528.93437 422.43777,529.33234 421.48287,530.47986 C 420.81292,531.28495 420.45371,532.46271 420.68463,533.09712 C 420.93515,533.78538 421.58685,533.23121 422.30056,531.72298 C 423.08078,530.07423 424.42413,529.01141 426.16418,528.66623 C 427.86221,528.32938 429.36394,527.17108 430.2961,525.47921 C 433.33735,519.95943 434.40518,519.08126 436.63596,520.26545 C 438.27084,521.13329 438.4602,521.59963 437.59677,522.63154 C 436.75316,523.63978 436.78936,523.91973 437.76477,523.93052 C 438.76637,523.94161 438.75194,524.10504 437.69055,524.77099 C 436.96331,525.2273 435.76753,525.26164 435.02172,524.84766 C 434.05326,524.31009 433.33576,524.7375 432.48899,526.35638 C 430.93684,529.32384 431.03042,530.19629 432.67035,528.04714 C 433.76335,526.61476 434.06024,526.55563 434.49658,527.68346 C 435.24672,529.62241 434.28981,533.97915 432.92518,534.83796 C 432.06369,535.38013 432.16739,535.57453 433.3235,535.5847 C 434.61533,535.59607 434.7371,535.98821 434.02539,537.84494 C 433.47172,539.28938 433.47973,540.09142 434.04782,540.09142 C 435.45546,540.09142 435.06976,542.54223 433.57242,543.11215 C 432.825,543.39662 432.21348,544.4508 432.21348,545.45477 C 432.21348,547.36582 432.90832,547.64892 435.33336,546.72592 C 436.46042,546.29693 436.55446,545.89078 435.7495,544.92873 C 434.89717,543.91008 435.29204,543.68579 437.93779,543.68579 C 441.90411,543.68579 442.7023,544.73467 440.34571,546.85003 C 438.46289,548.5401 437.87305,552.6717 439.51459,552.6717 C 440.04227,552.6717 440.25868,553.01729 439.99549,553.43968 C 439.7323,553.86206 440.52359,555.14564 441.75393,556.29208 C 444.54683,558.89455 444.68375,562.59331 442.04763,564.22622 C 440.35441,565.27506 440.17447,565.24876 440.64913,564.02185 C 440.94875,563.24741 440.84674,562.40095 440.42244,562.14085 C 439.99813,561.88074 439.38249,562.36192 439.05434,563.21013 C 438.5774,564.44292 438.30604,564.50892 437.70176,563.53915 C 437.286,562.87189 436.46602,562.6201 435.87957,562.97959 C 435.09909,563.45804 435.20918,564.06708 436.29028,565.25198 C 437.93823,567.05814 436.57715,568.73683 434.66518,567.25631 C 433.08471,566.0325 429.49562,565.2874 429.49562,566.1831 C 429.49562,566.60268 428.68191,566.79054 427.68737,566.60057 C 425.31009,566.14647 423.46062,569.29388 425.01391,571.15026 C 425.60777,571.86002 426.65526,572.44072 427.34166,572.44072 C 428.87916,572.44072 428.88102,572.57686 427.38275,575.4413 C 426.2795,577.55055 426.05211,577.62599 424.73514,576.31973 C 422.91856,574.51791 420.43608,575.39132 420.43608,577.83226 C 420.43608,579.86796 423.28092,581.4981 423.85457,579.79111 C 424.05055,579.20797 424.5846,578.73086 425.04134,578.73086 C 426.13923,578.73086 426.10315,582.01461 424.98244,584.09166 C 423.67651,586.51198 425.66998,586.91149 431.89305,585.47665 C 434.80158,584.80603 437.34178,584.41654 437.53796,584.61112 C 437.73413,584.80569 436.61894,585.68515 435.05978,586.56548 C 433.50062,587.4458 432.22236,588.62202 432.21921,589.17929 C 432.21607,589.73655 431.52371,590.74746 430.68065,591.42576 C 429.37999,592.47223 429.26187,592.47123 429.9008,591.41922 C 430.41787,590.56783 430.2673,590.30718 429.42023,590.58724 C 428.74177,590.81156 427.9103,591.97603 427.57252,593.17494 C 427.23474,594.37387 426.91773,594.90259 426.86806,594.34989 C 426.7107,592.59873 419.31134,592.12758 417.50012,593.75338 C 416.0358,595.06781 415.90631,595.05427 415.90631,593.58686 C 415.90631,590.48594 413.44447,593.87785 412.92912,597.68882 C 412.31817,602.20685 411.70435,602.88241 410.13925,600.7594 C 409.44825,599.82208 408.32343,599.33379 407.54114,599.63154 C 406.7824,599.92033 405.71104,599.70972 405.16035,599.1635 C 403.34646,597.36436 402.83415,599.40159 404.42762,602.0772 C 405.95203,604.63685 405.93986,604.72828 403.92702,605.83673 C 402.79236,606.46158 401.59223,606.98714 401.26004,607.00465 C 400.92786,607.02216 400.35032,607.33977 399.97661,607.71044 C 399.60291,608.08111 398.54973,608.38438 397.63622,608.38438 C 395.64834,608.38438 395.48613,609.55882 397.27106,611.02815 C 398.30742,611.88126 398.7672,611.72339 399.56782,610.23959 C 400.11838,609.21922 401.34579,608.38438 402.2954,608.38438 C 403.24501,608.38438 404.27393,607.98002 404.58188,607.4858 C 405.45204,606.08928 407.10204,606.42843 406.53746,607.88775 C 406.15164,608.88499 407.02698,609.26309 410.29084,609.50903 L 414.54737,609.82977 L 411.60302,611.10126 C 409.51653,612.0023 408.65867,612.96989 408.65867,614.42223 C 408.65867,615.54945 408.2946,616.47171 407.84965,616.47171 C 407.40468,616.47171 406.80234,617.08761 406.5111,617.84038 C 406.08054,618.95328 406.31293,619.03318 407.75452,618.26794 C 408.72963,617.75031 410.50752,617.57078 411.70539,617.86899 C 412.90325,618.16719 415.32928,618.01517 417.09655,617.53117 C 419.66072,616.82892 420.21637,616.89263 419.84732,617.84653 C 419.59296,618.50399 418.1945,619.45349 416.73963,619.95654 C 415.28475,620.45959 414.0944,621.31441 414.0944,621.85613 C 414.0944,622.49915 411.97153,622.74934 407.97921,622.57682 C 404.61585,622.43148 400.97989,622.63264 399.8993,623.02385 C 398.39325,623.5691 397.84756,623.35932 397.5618,622.12526 C 397.25098,620.78296 396.99719,620.90759 396.03492,622.87513 C 395.06263,624.86318 394.41499,625.17262 391.92339,624.83959 C 389.81197,624.55735 388.81041,624.84627 388.42226,625.84953 C 387.50756,628.21385 385.10093,627.46494 384.53104,624.63863 C 384.19769,622.98543 383.28898,621.83229 382.06232,621.50582 C 379.25296,620.75816 373.32406,620.84843 373.34032,621.63861 C 373.37401,623.27497 374.89288,624.41957 377.40619,624.7026 C 379.4146,624.92877 380.19645,625.53447 380.41061,627.03016 C 380.57008,628.14394 380.22139,629.05199 379.63421,629.05199 C 379.04798,629.05199 378.78572,628.49008 379.05142,627.80329 C 379.38439,626.94265 378.88639,626.59357 377.44899,626.68005 L 375.36346,626.80551 L 377.65228,628.9099 C 379.54705,630.65198 380.30197,630.8512 382.03715,630.06702 C 383.36257,629.46803 384.33129,629.43767 384.672,629.98447 C 384.96834,630.46005 384.57522,630.84918 383.7984,630.84918 C 382.82455,630.84918 382.386,631.70947 382.386,633.61982 C 382.386,635.45695 382.00444,636.25172 381.25355,635.97863 C 380.63071,635.75211 380.23313,635.08181 380.37005,634.48907 C 380.50696,633.89633 380.17376,633.6843 379.6296,634.01787 C 379.07044,634.36063 378.42561,633.81033 378.14666,632.75233 C 377.8752,631.72271 376.41313,630.26674 374.89761,629.51685 C 371.6385,627.90421 371.51454,627.88718 371.51454,629.05199 C 371.51454,629.54621 372.07615,629.95058 372.76255,629.95058 C 373.44895,629.95058 374.4791,630.51057 375.05178,631.19499 C 375.88373,632.18928 375.61739,632.55781 373.72673,633.02847 C 371.06915,633.69006 367.89073,632.95957 367.89073,631.68721 C 367.89073,631.2263 366.82792,630.84918 365.52891,630.84918 C 363.81251,630.84918 363.30816,631.21377 363.68327,632.18335 C 364.34248,633.88728 361.46276,635.50136 359.6959,634.41826 C 358.65854,633.78234 358.62236,633.39264 359.51822,632.50406 C 360.81187,631.22092 360.99313,629.95058 359.88256,629.95058 C 359.46427,629.95058 358.65765,630.9615 358.09007,632.19706 C 357.38649,633.72871 356.33125,634.44354 354.77381,634.44354 C 352.26656,634.44354 351.69808,633.13987 353.84844,632.3214 C 355.66643,631.62944 355.59001,629.05199 353.75151,629.05199 C 352.82962,629.05199 352.48691,628.55762 352.81712,627.70411 C 353.10393,626.96276 352.97283,626.35622 352.52578,626.35622 C 350.68367,626.35622 349.07901,629.20228 348.50618,633.48548 C 347.71967,639.36621 346.50516,639.40805 346.91509,633.5403 C 347.18218,629.71696 347.01216,629.12424 345.78264,629.59222 C 344.88397,629.93426 344.33592,629.66827 344.33592,628.89006 C 344.33592,628.20101 343.51646,627.57603 342.51491,627.5012 C 341.51336,627.42636 340.03795,626.71451 339.23623,625.91929 C 336.28277,622.98985 336.86398,625.59469 339.86807,628.75111 C 341.57797,630.54772 342.46738,631.73089 341.84454,631.38038 C 340.20403,630.4572 340.40706,633.51842 342.11014,635.38499 C 343.29701,636.68582 343.31369,636.99129 342.22054,637.40736 C 341.51233,637.67692 340.5133,637.4813 340.00048,636.97262 z M 347.89279,624.18974 C 348.61802,623.32299 348.65311,622.73761 348.00373,622.33952 C 346.73869,621.56403 345.24187,622.55217 345.24187,624.16277 C 345.24187,625.81265 346.52394,625.8257 347.89279,624.18974 z M 391.53879,618.44949 C 390.34762,618.05565 387.82172,619.85368 387.82172,621.09541 C 387.82172,621.54051 388.89659,621.20613 390.21032,620.35234 C 391.52405,619.49855 392.12186,618.64226 391.53879,618.44949 z M 350.12279,618.10547 C 349.82885,617.63374 348.99691,617.4729 348.27402,617.74804 C 347.54005,618.0274 347.20408,617.85606 347.51317,617.36001 C 347.81759,616.87144 347.65898,616.47171 347.16071,616.47171 C 345.66959,616.47171 344.92442,618.41753 346.13204,619.15781 C 347.60182,620.0588 350.81238,619.21218 350.12279,618.10547 z M 368.61549,618.98776 C 370.33468,617.28255 369.91781,615.68556 367.89073,616.21134 C 366.88791,616.47145 366.07882,617.43704 366.07882,618.37369 C 366.07882,620.31403 367.04304,620.54744 368.61549,618.98776 z M 327.68269,617.19868 C 328.05638,616.59896 327.80381,615.94804 327.10817,615.71805 C 326.42542,615.49231 324.90782,614.35644 323.73575,613.19389 C 321.17017,610.64917 321.08293,610.63891 319.94484,612.74817 C 318.12615,616.11881 325.65673,620.45011 327.68269,617.19868 z M 322.59301,616.47171 C 322.59301,615.41702 323.28935,615.41702 325.76385,616.47171 C 327.36943,617.15604 327.29205,617.25117 325.08439,617.30713 C 323.71413,617.34188 322.59301,616.96593 322.59301,616.47171 z M 353.39546,615.02768 C 353.39546,614.08009 352.9028,613.77117 351.96243,614.12908 C 351.17427,614.42909 350.25699,614.68071 349.92403,614.68828 C 349.11347,614.70671 351.84866,616.44039 352.71599,616.45795 C 353.0897,616.46552 353.39546,615.8219 353.39546,615.02768 z M 404.61913,612.81756 C 405.68148,611.11262 404.13207,610.69191 402.55426,612.25688 C 401.14193,613.65775 401.13945,613.77594 402.52237,613.77594 C 403.34715,613.77594 404.29069,613.34466 404.61913,612.81756 z M 360.64309,610.18157 C 360.64309,609.68734 360.00751,609.28297 359.23069,609.28297 C 358.45387,609.28297 358.04386,608.92098 358.31954,608.47854 C 358.59522,608.03611 358.17825,607.42956 357.39295,607.13065 C 353.34535,605.59007 353.2256,607.52726 357.24576,609.51178 C 360.87682,611.3042 360.64309,611.25813 360.64309,610.18157 z M 307.19179,602.43351 C 307.19179,602.24691 306.58027,602.09424 305.83286,602.09424 C 305.08544,602.09424 304.47393,602.75031 304.47393,603.55216 C 304.47393,604.7462 304.71988,604.8076 305.83286,603.89143 C 306.58027,603.27617 307.19179,602.6201 307.19179,602.43351 z M 391.02068,586.86331 C 390.68722,586.32814 389.99135,586.14961 389.47431,586.46656 C 388.86563,586.83969 388.95829,587.30278 389.73716,587.78024 C 391.191,588.67145 391.85277,588.19871 391.02068,586.86331 z M 368.39249,565.33028 C 367.52587,563.93947 366.3621,564.12225 365.73314,565.74795 C 365.42377,566.54763 365.57564,566.90832 366.08919,566.59351 C 366.58176,566.29156 366.98477,566.55362 366.98477,567.17585 C 366.98477,568.00657 367.25267,568.04148 367.99298,567.30718 C 368.54749,566.75718 368.72728,565.86758 368.39249,565.33028 z M 347.71813,565.35071 C 347.64633,564.4052 347.09422,563.84063 346.47271,564.07719 C 345.85867,564.3109 345.578,565.07521 345.84898,565.77565 C 346.56658,567.63049 347.86879,567.33444 347.71813,565.35071 z M 336.18233,565.34812 C 336.18233,564.90677 335.53747,564.30022 334.7493,564.00024 C 332.53308,563.1567 332.24026,563.33959 333.46446,564.80269 C 334.71436,566.29649 336.18233,566.59108 336.18233,565.34812 z M 372.86263,561.88226 C 372.6957,561.01737 372.52794,560.18477 372.48981,560.03205 C 372.45169,559.87932 371.99302,560.01642 371.47055,560.33669 C 370.82116,560.73478 370.85626,561.32017 371.58149,562.18691 C 372.9712,563.84781 373.2301,563.78624 372.86263,561.88226 z M 438.55516,555.36747 C 438.55516,553.48894 437.18668,552.2938 435.92282,553.06858 C 435.45017,553.35831 435.53989,554.49101 436.13446,555.74067 C 437.28439,558.15754 438.55516,557.96163 438.55516,555.36747 z M 333.15455,555.86253 C 332.80082,554.94821 333.08602,554.72607 334.11219,555.11666 C 335.08558,555.48713 335.35485,555.3218 334.91855,554.62159 C 334.55826,554.04337 334.71928,553.5703 335.27637,553.5703 C 335.83346,553.5703 336.03319,553.15933 335.72022,552.65705 C 335.40724,552.15475 334.66975,552.03019 334.08133,552.38025 C 333.47186,552.74282 333.54653,552.36244 334.25485,551.49631 C 334.93871,550.66009 335.08593,549.97593 334.58201,549.97593 C 334.07808,549.97593 333.72241,549.31181 333.79161,548.50011 C 333.86082,547.6884 333.48334,546.87093 332.95277,546.68351 C 332.32923,546.46324 332.05359,548.1767 332.17332,551.52905 C 332.38052,557.33119 332.35288,557.16466 333.10841,557.16466 C 333.41086,557.16466 333.43162,556.57871 333.15455,555.86253 z M 329.29702,544.35972 C 329.98356,543.89546 329.87083,543.41049 328.93469,542.80095 C 327.33987,541.76252 322.57994,541.58277 322.62182,542.56255 C 322.66715,543.62291 324.97621,546.38156 325.81843,546.38156 C 326.23686,546.38156 326.09,545.89632 325.49207,545.30325 C 323.89651,543.72066 324.16553,542.89335 326.11158,543.39812 C 327.28276,543.70189 327.70598,544.45085 327.46047,545.78511 C 327.24812,546.93913 327.34612,547.18156 327.70156,546.38156 C 328.03093,545.64022 328.74889,544.7304 329.29702,544.35972 z M 381.17806,542.37743 C 381.17806,541.65782 380.83168,541.28141 380.40832,541.54093 C 379.98496,541.80045 379.87312,542.38921 380.1598,542.84929 C 380.89238,544.02499 381.17806,543.8926 381.17806,542.37743 z M 331.37824,539.37999 C 332.01882,538.97608 332.15871,538.20797 331.71995,537.5038 C 331.13919,536.57174 330.55086,536.53773 329.02454,537.34795 C 327.95066,537.918 327.31136,538.76849 327.60385,539.23791 C 328.2403,540.25933 329.88546,540.32126 331.37824,539.37999 z M 368.97787,537.21593 C 368.13232,536.37724 367.64914,536.37724 366.80358,537.21593 C 365.95803,538.0546 366.19961,538.29423 367.89073,538.29423 C 369.58185,538.29423 369.82343,538.0546 368.97787,537.21593 z M 340.55203,532.3032 C 340.11124,530.04885 337.99423,529.7393 337.99423,531.92921 C 337.99423,533.03298 338.5792,533.80127 339.41959,533.80127 C 340.26325,533.80127 340.72542,533.1899 340.55203,532.3032 z M 333.90815,520.85894 C 335.37768,519.5081 335.84731,518.56422 335.16258,518.33783 C 334.5606,518.1388 334.03417,516.52224 333.99275,514.74547 C 333.95133,512.96872 333.60995,511.70194 333.23413,511.93042 C 332.85831,512.15891 332.72741,514.13448 332.94324,516.32057 C 333.17141,518.63162 332.92368,520.54784 332.3514,520.89866 C 331.70969,521.29203 331.54494,520.82762 331.87801,519.56433 C 332.45281,517.38412 331.22612,516.88823 330.41898,518.97451 C 329.9414,520.20895 330.51861,523.01818 331.24983,523.01818 C 331.41999,523.01818 332.61623,522.04652 333.90815,520.85894 z M 403.38023,517.47062 C 404.93486,515.92862 405.01462,515.64486 403.75911,516.12273 C 402.88444,516.45565 401.79446,516.72804 401.33694,516.72804 C 400.87942,516.72804 400.50508,517.33459 400.50508,518.07592 C 400.50508,519.89264 401.05511,519.77683 403.38023,517.47062 z M 405.03485,518.52522 C 405.03485,518.03099 404.62718,517.62662 404.1289,517.62662 C 403.63063,517.62662 403.22295,518.03099 403.22295,518.52522 C 403.22295,519.01944 403.63063,519.42381 404.1289,519.42381 C 404.62718,519.42381 405.03485,519.01944 405.03485,518.52522 z M 337.2967,516.50339 C 336.79103,515.88561 336.17688,514.57142 335.93193,513.58296 C 335.57353,512.13672 335.46603,512.23909 335.38146,514.10714 C 335.27176,516.53036 335.88499,517.62662 337.3502,517.62662 C 337.87222,517.62662 337.85097,517.18055 337.2967,516.50339 z M 327.12278,511.60086 C 327.12278,508.25852 324.91033,509.59306 324.56141,513.14588 C 324.30002,515.80721 324.43415,516.02544 325.69385,514.98848 C 326.47976,514.34153 327.12278,512.8171 327.12278,511.60086 z M 363.36096,502.15933 C 363.36096,501.77029 363.19046,501.45198 362.98208,501.45198 C 362.77369,501.45198 361.95833,501.20652 361.17017,500.90654 C 360.24454,500.55423 359.73714,500.85262 359.73714,501.74928 C 359.73714,502.58353 360.46015,503.08344 361.54905,503.00209 C 362.5456,502.92763 363.36096,502.5484 363.36096,502.15933 z M 395.84611,630.24275 C 393.50181,629.63345 394.84096,626.35622 397.43422,626.35622 C 399.14039,626.35622 399.52465,626.76637 399.28397,628.3306 C 398.95912,630.44197 398.21185,630.85761 395.84611,630.24275 z M 309.28843,625.23297 C 307.78647,622.91608 306.28583,619.83334 306.28583,619.06476 C 306.28583,617.51796 307.89296,618.29371 308.36024,620.06608 C 308.71383,621.40721 309.60273,621.86675 311.86323,621.87701 C 313.52927,621.88458 315.50392,622.29664 316.25133,622.79269 C 317.42756,623.57333 317.37383,623.87351 315.85169,625.0254 C 313.70543,626.6496 310.27706,626.75802 309.28843,625.23297 z M 424.68909,619.0037 C 424.9138,617.83775 425.82044,615.93335 426.70384,614.77173 L 428.31002,612.65966 L 430.37315,615.53352 C 432.72509,618.80967 432.23926,619.67401 427.56753,620.52492 C 424.47701,621.08784 424.30495,620.9969 424.68909,619.0037 z M 289.9096,611.00389 L 285.76376,609.18904 L 285.58475,602.31174 C 285.48629,598.52921 284.96424,595.16378 284.42464,594.83299 C 283.72448,594.40378 283.73066,594.05555 284.44621,593.61691 C 285.93042,592.70708 287.07279,593.71298 289.15683,597.76483 C 290.1854,599.76463 291.8103,601.60401 292.7677,601.85234 C 294.92846,602.4128 295.00958,603.50839 292.94839,604.29293 C 291.61386,604.80087 291.58113,605.00507 292.7219,605.70563 C 293.48874,606.17656 294.05545,607.87432 294.05545,609.7007 C 294.05545,611.44755 294.05545,612.86374 294.05545,612.84777 C 294.05545,612.8318 292.18982,612.00205 289.9096,611.00389 z M 415.90631,606.19094 C 415.90631,605.42043 415.39671,604.89111 414.77386,605.01466 C 414.15102,605.13822 413.64142,604.64395 413.64142,603.91629 C 413.64142,603.05028 415.04477,602.35565 417.70405,601.90537 C 421.11028,601.3286 422.05358,601.50203 423.54241,602.97877 C 425.69173,605.11063 425.38755,605.50116 421.22337,605.95633 C 419.45025,606.15013 417.52854,606.5974 416.95291,606.95027 C 416.33236,607.33069 415.90631,607.02157 415.90631,606.19094 z M 281.83894,599.62311 C 281.83131,598.51111 282.23275,597.60128 282.73102,597.60128 C 283.86611,597.60128 283.86611,598.5549 282.73102,600.29706 C 282.02087,601.38702 281.85015,601.25804 281.83894,599.62311 z M 418.62417,597.96645 C 418.62417,597.27138 418.11457,596.66971 417.49173,596.62939 C 416.86888,596.58907 417.73167,595.96218 419.40902,595.23627 C 422.92721,593.71373 423.2649,593.84125 422.58127,596.43421 C 422.00277,598.62843 418.62417,599.93667 418.62417,597.96645 z M 360.81556,596.92734 C 361.20059,594.9443 362.81184,594.98745 363.20089,596.99123 C 363.37938,597.91053 362.91105,598.49987 362.00202,598.49987 C 361.06893,598.49987 360.62458,597.91094 360.81556,596.92734 z M 342.52401,596.97855 C 342.52401,595.97117 344.44029,594.00692 345.42306,594.00692 C 345.82168,594.00692 346.14782,594.61347 346.14782,595.3548 C 346.14782,596.09614 345.97732,596.70269 345.76894,596.70269 C 345.56056,596.70269 344.7452,596.94814 343.95704,597.24813 C 343.16886,597.54811 342.52401,597.4268 342.52401,596.97855 z M 364.75858,595.86619 C 364.4719,595.40611 364.65169,594.7757 365.15809,594.46527 C 365.66449,594.15484 366.07882,594.53126 366.07882,595.30177 C 366.07882,596.88017 365.53519,597.11258 364.75858,595.86619 z M 360.64309,593.27138 C 360.64309,592.18539 362.36187,590.91923 362.99015,591.5424 C 363.21818,591.76858 362.78337,592.46513 362.02392,593.0903 C 361.16291,593.79906 360.64309,593.86724 360.64309,593.27138 z M 321.61704,581.94986 L 323.67478,579.7773 L 321.54847,579.37645 C 320.379,579.15598 321.33459,578.92054 323.67199,578.85323 C 326.00938,578.78592 328.17376,578.32649 328.48171,577.83226 C 329.17,576.72765 333.46446,576.63085 333.46446,577.71994 C 333.46446,578.40132 329.37557,579.77495 326.66981,580.00254 C 326.17153,580.04446 325.02082,580.98857 324.11268,582.10058 C 323.20453,583.21258 321.80851,584.12241 321.01041,584.12241 C 319.84686,584.12241 319.96706,583.6919 321.61704,581.94986 z M 291.79056,576.40054 C 291.79056,575.39881 297.84816,570.69323 299.16776,570.66987 C 299.98643,570.65539 300.89091,570.03698 301.17773,569.29565 C 301.46454,568.5543 302.42543,567.97968 303.31304,568.0187 C 304.26215,568.06042 304.46044,568.27633 303.79446,568.54288 C 303.17162,568.79215 302.66202,569.77115 302.66202,570.71841 C 302.66202,571.66568 302.07207,572.44072 301.35102,572.44072 C 300.62998,572.44072 298.1839,573.41961 295.91529,574.61604 C 293.64669,575.81245 291.79056,576.61549 291.79056,576.40054 z M 284.58762,572.04483 C 283.9919,571.33287 282.85591,570.99723 282.06319,571.29894 C 281.00873,571.7003 280.8176,571.50508 281.35109,570.57159 C 281.87751,569.65048 281.65787,569.68836 280.56129,570.70783 C 279.62184,571.5812 278.01769,571.97085 276.35688,571.72908 C 273.00909,571.24171 272.95119,570.37903 276.16285,568.83797 C 278.15977,567.87977 278.34023,567.57067 277.07214,567.28058 C 275.81203,566.99232 275.68024,566.56619 276.42455,565.18673 C 277.09378,563.94643 277.06532,563.4548 276.32429,563.4548 C 275.73627,563.4548 275.53638,562.81677 275.86128,561.97696 C 276.18036,561.15222 275.77693,559.78004 274.94842,558.87198 C 273.84151,557.6588 273.62022,556.37734 274.0786,553.83503 C 274.41673,551.95964 274.68987,549.01996 274.68559,547.30242 C 274.67789,544.21728 275.71206,542.82775 278.03581,542.80095 C 278.81995,542.79191 279.03142,543.40561 278.65235,544.59024 C 278.22213,545.93474 278.60982,546.60867 280.17672,547.24013 L 282.27804,548.08697 L 280.23965,548.68696 C 277.94661,549.36189 277.47679,550.87451 279.56018,550.87451 C 280.30759,550.87451 280.91911,551.27888 280.91911,551.77311 C 280.91911,552.26733 280.06978,552.6717 279.03171,552.6717 C 277.91857,552.6717 277.30367,553.13248 277.53278,553.79494 C 277.76043,554.45317 279.49053,554.91818 281.71185,554.91818 C 285.84772,554.91818 287.88998,556.67784 286.15737,558.74855 C 284.90226,560.24857 287.49126,563.98773 291.59362,566.59987 C 295.70065,569.21498 295.75697,570.27413 291.76895,569.8969 C 288.93117,569.62848 288.24056,569.89583 287.74129,571.45612 C 287.03493,573.66359 286.08972,573.84004 284.58762,572.04483 z M 350.70947,559.9195 C 349.28042,557.27101 349.56218,556.9871 352.02874,558.59013 C 353.27016,559.39691 354.06145,560.41716 353.78719,560.85731 C 352.97462,562.1614 351.71145,561.77651 350.70947,559.9195 z M 394.1634,560.4208 C 394.1634,559.58735 394.79251,558.66599 395.56141,558.37333 C 397.75973,557.53662 397.97262,558.51687 395.98086,560.30475 C 394.32233,561.7935 394.1634,561.80365 394.1634,560.4208 z M 441.53599,550.87273 C 441.4056,549.02409 441.76094,548.17874 442.66843,548.17874 C 443.39579,548.17874 443.99089,547.77437 443.99089,547.28015 C 443.99089,545.90261 445.7601,546.21084 447.44484,547.88188 C 448.7492,549.17564 448.77148,549.44371 447.60662,549.82883 C 446.86365,550.07447 446.16171,550.10696 446.04674,549.90105 C 445.93176,549.69512 445.1952,550.43645 444.40994,551.54846 C 442.49253,554.26369 441.76307,554.09219 441.53599,550.87273 z M 269.14171,540.35186 C 269.14171,539.21688 272.65925,534.69987 273.5431,534.69987 C 273.89844,534.69987 274.18917,535.5086 274.18917,536.49705 C 274.18917,537.4855 273.79903,538.29423 273.3222,538.29423 C 272.84536,538.29423 271.70968,538.96345 270.79846,539.7814 C 269.88724,540.59932 269.14171,540.85605 269.14171,540.35186 z M 305.11585,531.99828 C 304.50767,529.69152 305.32679,524.05538 306.36249,523.42048 C 307.94782,522.44865 308.98971,526.38196 307.95813,529.4443 C 306.58577,533.51832 305.72138,534.29503 305.11585,531.99828 z M 373.88639,530.96198 C 373.22933,527.70339 373.7774,526.70039 375.35826,528.26839 C 376.21514,529.11831 376.78591,528.91854 377.97753,527.35162 C 379.44143,525.42665 379.46293,525.51382 378.52606,529.57469 C 377.34338,534.701 374.79402,535.46328 373.88639,530.96198 z M 277.01926,529.35967 C 277.28731,528.34298 277.08051,527.51113 276.55972,527.51113 C 274.93282,527.51113 272.81807,524.82652 273.35392,523.44147 C 273.91225,521.99829 277.78529,521.62362 278.60166,522.93382 C 278.88071,523.38164 279.87795,523.5486 280.81777,523.30483 C 281.75759,523.06106 282.73897,523.20255 282.99861,523.61925 C 283.47319,524.38088 280.78157,527.84644 278.01672,530.03361 C 276.72361,531.05654 276.59482,530.96954 277.01926,529.35967 z M 364.46537,523.91676 C 364.50799,522.4298 365.04044,521.22099 365.65278,521.22099 C 367.09168,521.22099 369.00054,518.92147 369.2094,516.93649 C 369.42313,514.90513 371.46293,510.08717 371.91808,510.53863 C 372.11215,510.73111 371.83506,512.91012 371.30233,515.38084 C 370.76961,517.85159 370.33708,520.98511 370.34114,522.34423 C 370.34648,524.1262 369.89441,524.81536 368.72013,524.81536 C 367.82449,524.81536 366.83975,525.21973 366.5318,525.71395 C 365.43335,527.47682 364.38935,526.56885 364.46537,523.91676 z M 374.58846,521.59679 C 374.89091,520.81504 375.13836,518.93351 375.13836,517.41564 L 375.13836,514.65586 L 376.91043,516.68247 C 378.55028,518.55786 378.5763,518.86983 377.25921,520.86362 C 375.66866,523.27138 373.73526,523.80213 374.58846,521.59679 z M 367.89073,504.54402 C 367.89073,503.77351 368.29841,503.39301 368.79668,503.69845 C 369.29496,504.0039 369.70264,504.63432 369.70264,505.09938 C 369.70264,505.56443 369.29496,505.94494 368.79668,505.94494 C 368.29841,505.94494 367.89073,505.31452 367.89073,504.54402 z M 310.94983,493.97436 C 310.01197,492.85348 310.09996,492.44334 311.44484,491.66733 C 312.97122,490.78658 312.97457,490.7217 311.49507,490.6962 C 310.62309,490.68117 309.90965,491.07324 309.90965,491.56747 C 309.90965,492.7386 307.46452,492.73215 306.73358,491.55909 C 306.42276,491.06025 307.41532,489.94824 308.93927,489.08796 C 312.34591,487.16489 312.37753,486.77995 309.23019,485.54638 C 306.76035,484.57836 306.76902,484.56909 310.23307,484.47433 C 312.94464,484.40015 313.61052,484.07681 313.20585,483.03085 C 312.91904,482.28951 313.02935,481.68296 313.45097,481.68296 C 313.87259,481.68296 314.72508,482.28951 315.34538,483.03085 C 315.96567,483.77218 317.03479,484.37873 317.72119,484.37873 C 318.40759,484.37873 318.96919,485.21133 318.96919,486.22895 C 318.96919,487.24656 319.37687,487.82926 319.87515,487.5238 C 320.37342,487.21835 320.7811,487.56516 320.7811,488.29449 C 320.7811,489.0238 320.2715,489.82561 319.64866,490.07628 C 318.75449,490.43616 318.76352,490.70495 319.69154,491.35373 C 320.64187,492.01811 320.61398,492.38357 319.54589,493.26281 C 317.32167,495.09374 312.23852,495.51451 310.94983,493.97436 z M 401.41104,492.07645 C 401.41104,491.34289 400.34884,490.66582 398.94403,490.50391 L 396.47703,490.21958 L 399.058,488.55226 C 400.8857,487.37156 401.82515,487.18375 402.27689,487.90876 C 402.62776,488.47184 403.59567,488.67342 404.42782,488.35669 C 406.60869,487.52662 406.32609,489.67734 403.99028,491.68671 C 401.64627,493.70314 401.41104,493.73868 401.41104,492.07645 z M 347.01999,487.70306 C 345.79289,487.20784 344.07545,486.88925 343.20347,486.99506 C 342.33149,487.1009 341.61805,486.83857 341.61805,486.41212 C 341.61805,484.98287 343.773,483.48014 345.82257,483.48014 C 346.93919,483.48014 348.10096,483.08186 348.40428,482.59509 C 348.74615,482.04641 347.90875,481.91772 346.20108,482.25648 L 343.4464,482.80293 L 344.47559,479.77182 C 345.88231,475.62878 347.09001,474.29401 348.98679,474.786 C 349.87042,475.01519 351.31535,474.6791 352.19776,474.03911 C 353.99991,472.73206 359.78837,473.27943 360.85571,474.85782 C 361.9613,476.4928 361.63254,478.08859 360.19012,478.08859 C 359.4427,478.08859 358.83118,478.69514 358.83118,479.43648 C 358.83118,480.17782 359.13694,480.78753 359.51065,480.79137 C 360.72199,480.80387 362.23344,485.07754 361.46353,486.31317 C 360.87022,487.26536 360.48953,487.28163 359.59367,486.39306 C 358.09146,484.90306 354.77516,484.97628 353.47671,486.5281 C 351.98465,488.31131 349.60166,488.74496 347.01999,487.70306 z M 370.80369,487.18261 C 371.20249,485.12863 373.9516,484.87424 374.98554,486.79565 C 375.73429,488.18709 375.47498,488.43654 373.19295,488.52017 C 371.20687,488.59297 370.59622,488.25111 370.80369,487.18261 z M 369.26227,481.1178 C 368.45061,480.31274 368.01381,479.06657 368.2916,478.34853 C 368.5694,477.6305 368.79668,476.07555 368.79668,474.8931 C 368.79668,473.41317 369.64364,472.30877 371.51454,471.34916 C 374.45603,469.84041 374.74284,470.07201 373.28313,472.77733 C 372.56233,474.11322 372.67135,474.87141 373.73611,475.92752 C 375.33269,477.51111 375.57211,478.98719 374.23241,478.98719 C 373.73413,478.98719 373.32645,479.79592 373.32645,480.78437 C 373.32645,482.95636 371.28477,483.12386 369.26227,481.1178 z M 336.18233,469.66682 C 336.18233,468.92313 334.74417,468.20568 332.55851,467.85902 C 328.7684,467.25788 327.29171,464.60972 330.7466,464.60972 C 331.95454,464.60972 332.55851,464.01066 332.55851,462.81254 C 332.55851,460.8538 334.88972,460.32087 335.50653,462.13859 C 335.80367,463.01428 336.21964,462.99002 337.39393,462.02856 C 338.71192,460.94944 338.90019,461.02316 338.90019,462.61838 C 338.90019,463.99058 339.34214,464.32684 340.68716,463.97797 C 342.43526,463.52453 342.44019,463.59459 340.91365,467.19801 C 339.40275,470.76452 336.18233,472.44494 336.18233,469.66682 z"
       style="fill:#ffffff;fill-opacity:1;stroke:#000000;stroke-width:0;stroke-miterlimit:4;stroke-dasharray:none;stroke-opacity:1" />
  </g>
  <g
     inkscape:groupmode="layer"
     id="layer3"
     inkscape:label="Légende"
     transform="translate(-202.71498,-401.07581)"
     style="display:inline"
     sodipodi:insensitive="true">
    <text
       xml:space="preserve"
       style="font-size:22.67921638px;font-style:normal;font-variant:normal;font-weight:bold;font-stretch:normal;text-align:start;line-height:80.00000119%;writing-mode:lr-tb;text-anchor:start;fill:#ffffff;fill-opacity:1;stroke:none;stroke-width:1px;stroke-linecap:butt;stroke-linejoin:miter;stroke-opacity:1;font-family:Arial;-inkscape-font-specification:Arial Bold"
       x="435.59488"
       y="573.24384"
       id="text3190"
       sodipodi:linespacing="80.000001%"
       transform="scale(1.0308735,0.9700511)"><tspan
         sodipodi:role="line"
         id="tspan3192"
         x="435.59488"
         y="573.24384">Parc</tspan></text>
    <text
       xml:space="preserve"
       style="font-size:22.41843224px;font-style:normal;font-variant:normal;font-weight:bold;font-stretch:normal;text-align:start;line-height:80.00000119%;writing-mode:lr-tb;text-anchor:start;fill:#099469;fill-opacity:1;stroke:none;stroke-width:1px;stroke-linecap:butt;stroke-linejoin:miter;stroke-opacity:1;font-family:Arial;-inkscape-font-specification:Arial Bold"
       x="510.44382"
       y="567.01611"
       id="text3194"
       sodipodi:linespacing="80.000001%"
       transform="scale(1.0190196,0.9813354)"><tspan
         sodipodi:role="line"
         id="tspan3196"
         x="510.44382"
         y="567.01611">National</tspan></text>
  </g>
</svg>
