<svg xmlns="http://www.w3.org/2000/svg" xmlns:xlink="http://www.w3.org/1999/xlink" xmlns:xodm="http://www.corel.com/coreldraw/odm/2003" xml:space="preserve" version="1.1" style="shape-rendering:geometricPrecision;text-rendering:geometricPrecision;image-rendering:optimizeQuality;" viewBox="0 0 39370.08 49212.600000000006" x="0px" y="0px" fill-rule="evenodd" clip-rule="evenodd"><defs><style type="text/css">
   
    .fil0 {fill:black;fill-rule:nonzero}
   
  </style></defs><g><path class="fil0" d="M19740.42 9889.98c165.48,-3.03 170.39,232.27 4.93,235.3 -664.86,14.39 -680.11,-570.67 -1146.37,-614.91 -148.13,-14.05 -324.56,12.98 -451.56,90.26 -126.8,77.15 -163.2,129.78 -107.12,230.71 24.92,44.86 54.12,87.74 91.56,122.43 136.13,126.13 91.15,46.11 103.69,-44.18 22.95,-164.91 173.73,-292.28 356.32,-292.28 198.46,0 359.35,150.46 359.35,336.06 0,399.01 -581.92,436.02 -865.64,268.12 -125.62,-74.33 -219.67,-184.95 -282.64,-307.98 -109.88,-214.63 -38.01,-317 141.46,-457.58 190.76,-149.41 434.38,-203.19 679.25,-179.96 589.58,55.93 608.8,624.98 1116.77,613.99zm-8722.87 8173.61c47.04,-121.37 244.38,-54.48 197.33,66.9 -350.19,902.52 -958.91,1628.27 -1053.55,2622.04 -11.89,128.45 -220.74,111.55 -208.85,-16.91 98.99,-1039.39 703.83,-1741.05 1065.06,-2672.02zm10867.25 -6473.94c120.58,62.7 18.65,234.18 -101.95,171.47 -527.43,-274.9 -655.92,-671.54 -1072.06,-970.37 -109.63,-78.28 17.8,-234.39 127.44,-156.09 406.93,292.21 563.9,703.41 1046.56,954.99zm-3627.55 25984.85c-92.91,-86.02 -199.24,-160.41 -314.26,-222.82 -238.72,-129.31 -28.22,-469.18 210.49,-339.87 53.14,28.83 104.97,59.87 155.23,93.07 179.39,118.54 200.94,210.09 162.81,-56.6 -270.18,-1889.6 -521.84,-2444.11 98.63,-4314.87 154.98,-467.29 285.59,-861.07 218.14,-1322.77 -139.17,-952.65 -113.01,-1686.11 8.31,-2303.59 122.11,-621.49 337.69,-1118.22 577.87,-1600.26 666.33,-1337.27 1007.73,-2563.17 784.02,-4045.24 -37.85,-255.9 378.19,-309.72 416.04,-53.83 201.84,1337.23 -27.33,2493.09 -558.3,3709.75 -111,254.33 -156.61,225.49 145.31,206.99 1511.63,-92.67 3557.21,-497.78 4898.95,-1192.22 381.1,-197.25 308.65,-122.63 130.76,-462.84 -578.27,-1105.89 -824.46,-2570.82 -510.75,-3731.48 67.04,-250.83 474.87,-155.5 407.82,95.35 -354.27,1310.72 64.58,3070.95 926.52,4150.42 425.71,533.15 1236.65,1558.65 1962.44,2762.12 729.67,1209.9 1366.01,2592.69 1424.84,3823.52 51.77,1083.1 60.92,2134.79 60.92,3214.87 0,163.98 -10.81,322.91 -65.31,485.44 -74.51,222.19 7.5,221.3 156.12,287.74 453.33,202.66 642.35,500.03 1017.94,695.33 319.64,166.19 466.8,62.5 465.1,-243.73 -0.81,-145.35 -27.56,-287.89 -52.35,-419.98 -107.49,-572.47 -109.36,-884.68 431.19,-1249.7 166.2,-112.24 306.69,-207.12 35.52,-703.94 -498.93,-914.07 -651.43,-1296.69 -544.07,-2329.96 128.39,-1235.67 -100.63,-1746.09 -384.28,-2378.29 -522.85,-1165.27 -836.06,-2534.26 -929.15,-3790.43 -142.77,-1926.71 549.61,-3022.59 829.51,-4819.57 517.58,-3322.69 -556.15,-5976.18 -4197.24,-7036.93 -415.15,-120.94 -866.06,-222.13 -1355.11,-301.41 -238.99,-38.74 -176.3,-61.77 -368.91,36.39 -65.98,33.63 -140.83,58.4 -221.37,75.73 -290.78,62.58 -128.91,-50.56 -302.15,239.98 -374.46,627.99 -830.21,520.65 -1391.2,388.41 -374.14,-88.19 -808.9,-190.67 -1290.52,28.59 -660.28,300.61 -1211.84,20.43 -1765.15,-260.65 -318.28,-161.69 -489.31,-242.69 -733.76,-296.48 -431.35,-94.92 -441.11,-67.8 -529.35,361.49 -224.22,1090.81 400.9,2771.14 868.54,3595.34 128.7,228.59 -242.94,411.6 -371.65,183.01 -545.2,-960.92 -1144.07,-2645.7 -903.87,-3848.94 98.69,-494.42 265.46,-363.33 -239.25,-502.13 -760.41,-209.12 -1554.1,-637.63 -1554.1,-1455.3 0,-258.93 420.97,-258.93 420.97,0 0,882.07 1428.72,1178.06 2152.81,1233.39 390.94,29.87 740.97,207.69 1090.26,385.12 457.43,232.37 913.43,464 1380.35,251.42 619.29,-281.94 1133.83,-160.65 1576.64,-56.28 312.42,73.64 577.29,135.97 797.83,-60.49 258.17,-229.98 26.79,-174.75 -217.32,-230.63 -606.14,-138.78 -1194.48,-361.48 -1735.28,-652.47 -238.71,-128.3 -29.87,-468.17 208.85,-339.87 503.9,271.14 1060.34,481.64 1625.1,610.94 203.77,46.65 476.06,80.88 701.41,60.43 302.47,-27.45 294.64,-57.51 289.89,-281.22 -6.43,-302.93 102,-473.49 195.83,-621.07 80.83,-127.13 142.54,-224.18 -95.38,-527.29 -220.71,-281.19 -597.28,-616.52 -987.19,-963.73 -753.77,-671.22 -1554.43,-1384.19 -1534.67,-1988.65 9.89,-302.57 -183.91,-960.96 -612.12,-1502.91 -165.31,-209.22 -365.3,-398.78 -601.23,-539.2 -416.02,-247.59 -274.33,-131.47 -438.3,125.17 -243.45,381.06 -748.12,524.4 -1193.59,575.4 -1669.71,191.2 -2126.21,-19.8 -2342.7,-420.64 -118.19,-218.87 -43.33,-201.11 -343.65,-72.95 -24.09,10.28 -48.07,20.74 -71.75,31.31 -176.3,78.72 -176.45,64.65 -124.49,259.99 72.61,273.11 201.8,279.09 395.86,434.02 209.56,167.7 -63.43,466.04 -272.98,298.35 -445.11,-355.35 -541.4,-379.9 -578.47,-979.95 -20.89,-338.13 -113.52,-460.2 -347.35,-705.19 -162.06,-169.78 -206.1,-215.91 -269.42,-537.17 -57.72,-292.93 -368.85,-104.85 -504.39,31.54 -293.41,295.24 -503.88,659.43 -550.36,1056.91 -39.96,341.81 41.2,712.28 295.3,1089.97 243.89,362.5 313.1,625.04 374.61,858.39 55.89,212.04 104.2,395.29 311.58,611.1 184.7,191.93 -127.73,454.91 -312.44,262.98 -277.37,-288.65 -337.45,-516.56 -406.96,-780.27 -25.22,-95.67 -51.91,-196.93 -94.39,-309.13 -95.44,-252.19 -73.2,-237.26 -284.3,-79.4 -908.18,679.06 -1443.17,1689.31 -1792.96,2705.89 -765.11,2223.5 -921.08,4087.13 -2096.31,6309.64 -943.04,1783.41 -1376.05,3306.39 -732.27,5277.35 117.11,358.57 274.32,713.58 478.41,1060.51 410.33,697.53 313.02,537.48 298.6,-58.22 -9.41,-388.45 17.19,-814.86 92.97,-1293.91 40.01,-255.89 456.06,-199 416.04,56.91 -265.49,1678.48 109.63,2684.68 492.48,3711.6 793.43,2128.22 463.69,2985.14 683.96,4968.47 112.68,1014.63 258.48,2328.06 36.33,3386.2 -0.22,1.27 -0.43,2.54 -0.68,3.81 -61.61,316.11 -172.42,633.1 -320,939.15 -153.72,310.49 -179.66,254.41 299.15,277.63 275.78,12.13 256.06,404.3 -19.74,392.17 -568.41,-26.74 -692.26,11.29 -998.34,446.52 -197.71,281.12 -287.77,485.68 -254.85,618.78 20.06,81.09 107.25,141.83 265.67,190.46 209.39,64.28 225.07,24.27 349.98,-219.41 92.67,-180.77 190.71,-358.83 281,-540.76 115.71,-234.65 497.23,-70.11 381.51,164.55 -131.61,265.16 -297.19,536.26 -407.08,806.33 -65.31,160.51 -118.25,265.67 117.87,286.61 378.74,33.6 692.33,19.99 940.03,-39.5 391.22,-93.97 624.79,-301.26 663.83,-686.15 49.39,-486.9 -29.57,-659.05 -476,-843.16 -253.07,-104.17 -83.7,-464.04 169.37,-359.87 179.19,73.91 129.81,93.12 137.15,-87.25 1.53,-37.54 4.7,-74.96 9.78,-112.11 34.6,-255.89 450.64,-206.7 416.04,49.21 -12.93,94.75 -13.49,197.22 12.41,300.58 34,238 100.07,263.29 192.98,13.01 39.8,-107.22 71.48,-234.75 71.48,-387.73 0,-491.04 -102.57,-1106.37 -176.43,-1596.57 -89.68,-595.26 -183.08,-1215.21 -131.55,-1773.23 129.23,-1399.31 498.75,-2400.82 357.59,-3878.42 -106.5,-1114.72 -96.01,-2238.56 254.19,-3318.81 80.03,-246.79 481.27,-132.99 401.24,113.8 -84.3,257.07 -143.03,514.99 -191.5,775.74 -61.22,329.38 -64.67,321.54 257.14,364.59 566.03,75.74 1180.66,135.32 1757.63,136.33 354.78,0.62 412.04,9.96 389.24,-369.79 -15.84,-263.8 -45.35,-533.5 -102.14,-779.08 -58.4,-252.87 352.71,-335.9 411.11,-83.05 254.7,1101.48 87.86,2025.43 -240.72,3090.63 -346.66,1123.82 -404.52,1551.9 -129.8,2676.08 356.21,1457.81 431.84,1767.35 199.45,3498.02 -47.21,351.55 -151.5,760.61 -295.26,1175.91 -111.71,322.74 -136.02,230.95 168.82,190.11 192.77,-25.84 397.61,-19.06 600.26,22.75 269.29,55.62 178.87,438.56 -90.44,382.94 -243.39,-50.2 -488.09,-33.73 -690.41,42.22 -411.17,154.35 -578.69,711.97 -806.41,1049.87 -248.72,369.07 5.3,483.04 376.04,443.96 268.02,-28.26 297,-198.98 338.18,-397.24 28.43,-136.88 66.13,-261.97 93.19,-335.26 89.76,-243.76 486.07,-116.11 396.3,127.65 -23.67,64.08 -57.13,175.26 -80.97,294.12 -46.36,231.16 -136.92,350.94 159.64,404.11 663.58,118.98 1278.54,-231.96 1480.82,-835.3 80.72,-240.8 78.41,-250.07 -123.52,-437.02zm-2368.81 -680.67c211.38,-521.18 366.06,-1057.71 424.89,-1495.81 223.58,-1665.04 150.93,-1962.36 -191.23,-3362.68 -296.48,-1213.31 -231.71,-1678.12 136.38,-2871.4 95.82,-310.65 193.28,-626.59 259.51,-962.94 92.42,-469.4 115.13,-380.95 -358.41,-397.42 -578.56,-20.12 -1185.19,-65.7 -1754.76,-136.04 -300.59,-37.12 -311.63,-18.43 -315.75,250.86 -7.1,463.83 9.54,925.76 53.8,1388.98 145.6,1524 -223.6,2513.12 -355.94,3946.09 -47.76,517.21 42.03,1113.26 128.26,1685.57 76.72,509.16 181.36,1140.34 181.36,1650.4 0,352.87 -95.61,665.1 -281.2,827.59 -241.91,211.8 -194.64,163.02 -255.3,636.63 -55.93,551.43 -413.97,893.63 -977.91,1029.09 -294.98,70.85 -656.37,88.13 -1083.1,50.27 -615.89,-54.64 -340.36,-368.83 -794.71,-511.57 -322.79,-101.42 -508,-251.76 -564.24,-479.17 -70.9,-286.68 98.17,-654.2 468.35,-1131.87 396.43,-511.56 689.62,-1076.67 821.98,-1698.37l0.17 -0.87c0.35,-1.82 0.73,-3.63 1.13,-5.44 211.02,-999.24 68.39,-2283.9 -41.72,-3275.39 -215.85,-1943.63 111.31,-2803.44 -662.58,-4879.27 -79.21,-212.48 -151.24,-426.26 -231.54,-640.65 -241.08,-643.76 -215.66,-607.18 -634.25,-1114.07 -448.08,-542.6 -723.39,-1142.84 -917.64,-1737.55 -675.76,-2068.89 -234.83,-3689.39 756.93,-5564.94 1159.98,-2193.65 1316.06,-4055.19 2073.29,-6255.81 379,-1101.46 971.05,-2194.98 1965.52,-2918.96 233.97,-170.33 190.41,-148.2 96.65,-363.33 -151.35,-347.25 -205.55,-680.56 -170.7,-998.81 57.12,-488.49 309.56,-929.8 660.53,-1282.98 395.56,-398.02 1099.03,-472.08 1224.64,165.31 42.06,213.36 69.21,241.81 169.11,346.47 121.77,127.58 237.59,255.55 322.05,408.73 94.67,171.71 62.87,211.94 226.79,141.99 61.05,-26.05 86.3,-35.72 146.02,-59.03 176.54,-68.9 130.78,-54.26 57.77,-247.23 -248.93,-657.85 -611.57,-1348.3 -1067.36,-2000.13 -403.82,-577.49 -879.77,-1123.77 -1413.22,-1588.93 -334.85,-291.99 -227.59,-235.43 -668.57,-200.77 -980.44,77.04 -1788.81,244.81 -2761.63,565.42 -747.4,246.29 -940.69,-213.83 -446.32,-731.84 327.5,-343.18 808.52,-629.63 1261.41,-811.1 323.52,-129.61 401.36,-102.55 -34.98,-182.34 -619.57,-113.29 -1270.99,-95.08 -1942.57,94.7 -430.81,121.74 -870.74,313.83 -1316.86,586.67 -343.17,209.89 -834.3,199.25 -756.14,-281.74 31.31,-192.67 192.19,-468.05 503.08,-743.87 992.22,-880.28 2356.87,-1228.88 3691.58,-1323.45 290,-20.54 297.41,-15.18 462.5,-166.56 268.64,-246.33 724.2,-168.96 1021.25,29.99 140.91,104.3 182.38,135.41 389.81,152.79 338.7,28.37 698.57,88.14 1038.13,163.78 308.41,68.69 174.22,37.59 449.98,-16.23 315.93,-61.68 683.83,12.62 885.17,252.64 226.3,269.79 78.35,209.67 451.65,233.61 321.56,20.63 624.98,46.46 916.63,99.19 302.95,54.78 591.98,137.69 882.53,233.36 199.08,65.56 229.42,88.08 361.18,46.53 336.96,-106.26 716.79,13.85 838.75,311.67 108.3,264.48 -23.45,177.39 267.14,379.77 270.04,188.06 527.5,394.51 748.8,631.78 213.15,228.52 278.57,121 511.6,256.3 259.59,150.72 410.87,435.27 382.69,713.52 -21.83,215.6 -68.19,141.81 38.85,362.67 106.41,219.57 194.31,450.53 265.19,682.29 109.84,359.22 74.19,169.33 299.84,403.31 226.51,234.84 275.45,577.98 106.53,852.85 -185.41,301.65 -152.74,84.43 -179.35,497.16 -18.17,281.75 -50.67,556.8 -84.37,837.62 -41.49,345.75 -40.78,246.93 186.83,568.7 417.42,590.11 606.27,1279.49 595.31,1614.96 -14.06,429.95 716.75,1080.72 1404.76,1693.38 403.91,359.68 794,707.04 1036.52,1016.02 402.43,512.72 279.48,706.1 118.41,959.44 -58.15,91.46 -124.36,195.59 -135.76,358.88 -16.11,230.72 -4.31,181.35 232.32,220.99 480.41,80.5 925.41,181.69 1337.13,301.64 3841.2,1119.05 5035.94,3951.83 4488.3,7467.54 -273.33,1754.78 -963.99,2878.75 -826.22,4738.07 90.06,1215.3 392.05,2536.94 897.9,3664.32 305.78,681.51 552.67,1231.74 413.88,2567.45 -99.49,957.64 38.39,1266.52 501.31,2114.66 434.3,795.68 159.57,981.2 -165.43,1200.68 -379.07,255.99 -333.62,481.16 -261.81,863.69 135.24,720.35 315.67,1681.36 -2017.15,2112.97 -305.56,56.53 -562.73,90.07 -756.39,39.69 -180.84,-47.54 -290.89,-146.37 -331.13,-326.57 -74.49,-333.59 80.12,-221.5 -356.28,-171.69 -468.11,53.44 -871.89,-224.11 -618.77,-653.83 118.63,-201.37 416.29,-456.09 981.04,-741.19 497.05,-250.91 741.8,-455.98 741.8,-996.51 0,-1077.45 -7.65,-2117.57 -59.28,-3197.95 -55.39,-1158.93 -667.86,-2483 -1370.57,-3648.19 -560.53,-929.45 -1166.49,-1695.83 -1799.9,-2535.92 -264.11,-350.3 -145.81,-337.09 -511.88,-145.69 -686.7,359.08 -1518.79,627.47 -2283.59,818.99 -344.72,86.32 -383.02,16.65 -211.52,340.19 336.57,634.96 1082.91,1393.82 1327.58,1621.85 670.68,625.24 1104.8,1029.94 172.43,2713.66 -328.5,593.22 -859.68,1524.94 -909.11,2191.79 -58.54,789.54 -395.74,1039.43 -705.57,1269.03 -296.11,219.44 -558.74,414.06 -291.59,1470.15 154.5,610.78 -466.13,992.14 -1073.15,872.42 -412.21,-81.31 -523.01,248.65 -754.11,470.52 -234.31,224.93 -552.79,353.06 -883.22,413.94 -300.82,55.42 -616.14,54.22 -884.04,19.83 -390.51,-50.14 -187.36,-80.36 -466.72,168.31 -417.39,371.57 -1147.2,535.39 -1694.07,360.85 -277.46,-88.56 -217.39,-88.94 -604.11,-43.88 -527.91,55.65 -1268.66,-373.41 -881.86,-895.44 294.48,-397.44 545.04,-897.15 730.65,-1354.79zm4134.83 943.73c-96.92,-91.61 -200.09,-195.55 -302.06,-309.49 -161.78,-180.76 -338.88,-378.61 -573.2,-449.35 -100.04,-30.2 -132.19,-34.44 -221.5,20 -43.85,26.72 -20.76,41.17 -17.33,165.49 7.19,260.52 -24.51,529.51 -96.93,777.77 -67.5,231.42 -141.81,216.35 149.98,238.25 333.18,25.01 775.14,-5.02 1009.57,-142.82 207.87,-122.19 216.19,-144.15 51.48,-299.84zm-1022.52 -1236.15c151.88,-98.35 304.67,-223.67 455.74,-370.25 627.02,-608.42 1207.74,-1564.21 1580.89,-2496.33 586.72,-1465.62 754.31,-1984.19 -387.06,-2993.96 -517.96,-458.22 -908.37,-803.64 -1209.19,-1151.34 -269.9,-311.98 -248.33,-454.09 -298.59,39.22 -49.27,483.44 -38.15,1045.61 61.77,1729.59 79.92,547.08 -63.16,978.48 -232.94,1490.4 -259.84,783.43 -586.67,1769.47 -181.39,3690.57 41.98,199 11.92,190.85 210.77,62.1zm625.87 272.46c160.65,115.7 292.28,262.75 416.89,401.98 187.96,210.02 351.75,392.94 596.51,263.77 171.28,-140.1 411.07,-240.68 771.41,-169.6 294.11,58.01 661.43,-69.65 578.18,-398.75 -328.05,-1296.84 33.54,-1564.8 441.23,-1866.93 239.58,-177.54 500.33,-370.78 546.06,-987.59 54.91,-740.58 591.43,-1688.73 955.16,-2345.59 791.3,-1428.98 442.98,-1753.7 -95.15,-2255.36 -337.92,-314.94 -1152.54,-1141.26 -1475,-1864.14 -89.28,-200.16 -108.82,-201.63 -351.02,-158.2 -648.08,116.2 -1324.84,200.94 -1997.41,231.9 -340.23,15.66 -271.87,-36.89 -410,265.62 -56.07,122.79 -109.44,247.82 -158.89,376.77 -133.43,347.99 -144.61,325.24 70.8,646.04 304.2,453.02 751.14,848.43 1422.71,1442.55 1279.16,1131.69 1140.93,1795.08 492.3,3415.35 -391.59,978.19 -1005.22,1985.29 -1671.33,2631.66 -46.91,45.52 -94.14,89.33 -141.65,131.3 -201.73,178.23 -188.87,96.54 9.2,239.2zm8911.98 849.69c118.48,-128.56 194.55,-188.52 344.18,-270.24 238.72,-130.31 450.84,209.57 212.13,339.87 -218.08,119.09 -308.55,249.8 -362.85,443.78 -96.61,345.07 246.35,271.02 569.16,211.3 516.65,-95.59 884.72,-219.05 1144.8,-359.3 407.08,-219.52 235.15,-154.61 5.15,-252.72 -553.91,-236.27 -612.74,-671.46 -1266.87,-758.9 -343.28,-45.87 -393.98,102.43 -685.04,249.35 -344.61,173.96 -560.72,329.48 -696.77,446.91 -159.75,137.88 -158.61,236.94 141.98,202.63 215.19,-27.35 467.99,-82.08 594.15,-252.69zm-2989.2 -18359.48c14.6,128.46 -194.24,149.21 -208.85,20.76 42.77,-1106.39 -431.58,-1820.69 -1338.74,-2327.27 -115.03,-70.7 0.06,-234.5 115.11,-163.79 1059.48,653.62 1467.35,1430.86 1432.47,2470.3zm-13472.71 -16904.31c-560.8,122.43 -1183.87,429.34 -1586.43,813.41 -235.5,224.69 -189.35,200.52 85.27,112.21 762.37,-245.14 1490.28,-414.6 2273.14,-499.87 363.76,-39.62 472.02,18.86 106.19,-193.73 -54.97,-31.95 -110.35,-62.95 -166.14,-92.98 -365.74,-196.83 -322.61,-224.07 -712.03,-139.05zm9119.37 4617.32c30.43,-244.03 42.12,-483.57 46.39,-729.3 4.54,-261.7 69.78,-268.19 203.44,-422.98 162.11,-187.74 67.84,-470.05 -96.73,-559.91 -154.87,-84.56 -189.92,-11 -268.44,-292.52 -78.46,-281.28 -188.84,-635.65 -334.36,-891.48 -136.51,-240 -88.43,-202.18 -42.91,-441.56 34.77,-182.85 -62.86,-316.48 -179.34,-384.11 -312.94,-181.71 -232.89,51.06 -517.04,-226.5 -308.14,-301 -1144.65,-932.43 -1138.22,-1036.44 4.04,-280.28 -288.33,-357.86 -506.07,-263.88 -85.16,36.76 -120.75,81.71 -288.64,10.81 -328.48,-138.72 -665.45,-227.56 -1016.96,-291.11 -475.5,-85.98 -322.17,-30.6 -78.7,125.07 146.49,93.67 96.48,58.95 263.84,79.01 340.91,40.84 621.98,244.17 711.07,546.09 55.35,187.59 0.15,189.08 129.88,304.2 129.73,124.74 193.37,229.89 306.42,342.22 135.21,134.35 110.99,183.93 304.28,230.16 384,94.26 534.52,378.36 545.81,659.04 9.8,244.26 -80.22,182.06 54.5,427.29 82.25,149.74 160.26,305.86 234.48,459.33 97.26,201.17 44.46,128.45 232.86,237.04 297.27,171.34 443.97,458.07 372.69,779.73 -62.92,283.89 -110.6,164.52 -4.19,469.64 62.23,178.42 130.24,358.35 195.02,536.49 78.59,216.1 11.81,162.98 247.38,247.93 133.67,48.2 259.26,108.5 376.94,178.44 244.58,145.36 208.13,215.99 246.64,-92.69zm-5438.93 -2262.29c471.2,673.85 847.09,1387.96 1106.7,2069.74 63.78,167.5 141.66,452.07 220.37,616.17 149.55,311.73 478.04,480.39 1957.87,310.94 425.9,-48.76 1018.27,-206.83 951.54,-716.56 -25.45,-194.4 -165.19,-542.88 -272.98,-831.19 -113.26,-302.97 -119.59,-250.96 -12.76,-551.12 63.52,-178.48 3.89,-323.22 -166.63,-421.51 -267.53,-154.19 -248.35,-96.14 -402.16,-424.52 -122.75,-262.05 -169.59,-341.25 -313.61,-593.56 -96.16,-168.44 -23.45,-186.09 -8.01,-356.75 13.48,-149.06 -87.22,-292.29 -227.28,-358.3 -239.53,-112.9 -259.65,-47.94 -401.63,-253.98 -140.75,-204.26 -313.77,-401.15 -487.9,-568.57 -125.38,-154.11 -138.14,-161.46 -145.2,-306.33 -20.2,-189.99 -178.63,-266.08 -371.55,-287.63 -197.81,-22.09 -227.53,4.02 -394.15,-112.39 -152.24,-106.36 -310.67,-207.31 -475.52,-301.87 -164.26,-92.41 -342.82,-170.58 -514.84,-262.03 -222.07,-118.05 -189.7,-93.06 -292.85,-299.85 -108.58,-237.43 -431.88,-258.94 -661.02,-166.02 -98.52,39.95 -182.39,52.69 -361.58,10.56 -440.21,-103.5 -827.51,-143.72 -1287.04,-201.46 -207.33,-26.05 -252.91,-45.17 -427.7,-203.78 -179.65,-171.91 -433.96,-162.56 -612.68,-2.65 -142.51,133.28 -200.79,188.89 -406.71,188.89 -632.59,0 -1278.71,127.66 -1888.98,308.35 -645.94,191.25 -1248.5,483.65 -1741.99,921.46 -91.99,81.61 -166.26,159.77 -223.86,231.81 -275.85,345.03 -92.57,206.09 109.05,90.11 429.81,-247.28 855.17,-426.04 1273.63,-544.29 1342.36,-379.35 2607.35,-138.31 3719.91,460.47 1096.14,589.95 2040.34,1527.31 2759.56,2555.86zm7374.24 25275.02c109.63,78.28 -17.8,234.39 -127.44,156.09 -519.61,-372.98 -808.01,-787.26 -1108.18,-1320.12 -64.35,-114.28 121.46,-205.8 185.82,-91.5 285.14,506.18 556.08,901.13 1049.8,1255.53zm902.25 -17247.07c218.02,33.17 164.11,343.21 -53.94,310.04 -189.21,-29.31 -500.45,-137.31 -636.51,-264.53 -156.6,-146.46 81.51,-369.14 238.11,-222.69 85.09,79.56 333.46,158.76 452.34,177.17zm-8922.12 -4000.15c18.92,127.96 -189.1,154.85 -208.02,26.91 -93.36,-615.9 -854.22,-1073.11 -259.52,-1778.95 85.33,-101.52 250.59,19.97 165.26,121.5 -474.15,562.76 215.94,1061.02 302.27,1630.54z"/></g><text x="0" y="39385.08" fill="#000000" font-size="5px" font-weight="bold" font-family="'Helvetica Neue', Helvetica, Arial-Unicode, Arial, Sans-serif">Created by Oleksandr Panasovskyi</text><text x="0" y="39390.08" fill="#000000" font-size="5px" font-weight="bold" font-family="'Helvetica Neue', Helvetica, Arial-Unicode, Arial, Sans-serif">from the Noun Project</text></svg>