<svg xmlns="http://www.w3.org/2000/svg" style="display:none">

  <!-- ============================================================
       ICÔNES UI — TOOLBAR
       (fill="currentColor" → hérite de la couleur CSS du bouton parent)
       ============================================================ -->

  <!-- Filtres / Toggle sidebar — inline, viewBox 24x24 -->
  <symbol id="icon-menu" viewBox="0 0 24 24">
    <path fill="currentColor" d="M3 18h6v-2H3v2zm0-5h12v-2H3v2zm0-7v2h18V6H3z"/>
  </symbol>

  <!-- Rectangle (outil dessin) — inline, viewBox 24x24 -->
  <symbol id="icon-rectangle" viewBox="0 0 24 24">
    <path fill="currentColor" d="M3 5h18v14H3V5zm2 2v10h14V7H5z"/>
  </symbol>

  <!-- Position / Géolocalisation — FontAwesome, viewBox 640x640 -->
  <symbol id="icon-position" viewBox="0 0 640 640">
    <path fill="currentColor" d="M128 252.6C128 148.4 214 64 320 64C426 64 512 148.4 512 252.6C512 371.9 391.8 514.9 341.6 569.4C329.8 582.2 310.1 582.2 298.3 569.4C248.1 514.9 127.9 371.9 127.9 252.6zM320 320C355.3 320 384 291.3 384 256C384 220.7 355.3 192 320 192C284.7 192 256 220.7 256 256C256 291.3 284.7 320 320 320z"/>
  </symbol>

  <!-- Trajectoire / Route — FontAwesome, viewBox 640x640 -->
  <symbol id="icon-trajectoire" viewBox="0 0 640 640">
    <path fill="currentColor" d="M576 160C576 210.2 516.9 285.1 491.4 315C487.6 319.4 482 321.1 476.9 320L384 320C366.3 320 352 334.3 352 352C352 369.7 366.3 384 384 384L480 384C533 384 576 427 576 480C576 533 533 576 480 576L203.6 576C212.3 566.1 222.9 553.4 233.6 539.2C239.9 530.8 246.4 521.6 252.6 512L480 512C497.7 512 512 497.7 512 480C512 462.3 497.7 448 480 448L384 448C331 448 288 405 288 352C288 299 331 256 384 256L423.8 256C402.8 224.5 384 188.3 384 160C384 107 427 64 480 64C533 64 576 107 576 160zM181.1 553.1C177.3 557.4 173.9 561.2 171 564.4L169.2 566.4L169 566.2C163 570.8 154.4 570.2 149 564.4C123.8 537 64 466.5 64 416C64 363 107 320 160 320C213 320 256 363 256 416C256 446 234.9 483 212.5 513.9C201.8 528.6 190.8 541.9 181.7 552.4L181.1 553.1zM192 416C192 398.3 177.7 384 160 384C142.3 384 128 398.3 128 416C128 433.7 142.3 448 160 448C177.7 448 192 433.7 192 416zM480 192C497.7 192 512 177.7 512 160C512 142.3 497.7 128 480 128C462.3 128 448 142.3 448 160C448 177.7 462.3 192 480 192z"/>
  </symbol>

  <!-- Polygone (dessin spatial) — FontAwesome, viewBox 640x640 -->
  <symbol id="icon-polygone" viewBox="0 0 640 640">
    <path fill="currentColor" d="M128 64C151.7 64 172.4 76.9 183.4 96L456.5 96C467.6 76.9 488.2 64 511.9 64C547.2 64 575.9 92.7 575.9 128C575.9 162 549.4 189.8 515.9 191.9L513.8 194.8L442.3 293.9C445.9 301.9 447.9 310.8 447.9 320.1C447.9 329.4 445.9 338.3 442.3 346.3L444.5 349.4L513.8 445.4L515.9 448.3C549.4 450.4 575.9 478.2 575.9 512.2C575.9 547.5 547.2 576.2 511.9 576.2C488.2 576.2 467.5 563.3 456.5 544.2L183.4 544.2C172.3 563.3 151.7 576.2 128 576.2C92.7 576.2 64 547.5 64 512.2C64 488.5 76.9 467.8 96 456.8L96 183.7C76.9 172.4 64 151.7 64 128C64 92.7 92.7 64 128 64zM458.2 477.4L392.7 386.8L390.5 383.7C388.4 383.9 386.2 384 384 384C348.7 384 320 355.3 320 320C320 284.7 348.7 256 384 256C386.2 256 388.4 256.1 390.5 256.3L458.2 162.6C457.6 161.7 457.1 160.9 456.6 160L183.4 160C177.8 169.7 169.7 177.8 160 183.4L160 456.5C169.7 462.1 177.8 470.2 183.4 479.9L456.5 479.9C457 479 457.6 478.1 458.1 477.3z"/>
  </symbol>

  <!-- Fonds de carte / Couches — FontAwesome, viewBox 640x640 -->
  <symbol id="icon-couches" viewBox="0 0 640 640">
    <path fill="currentColor" d="M296.5 69.2C311.4 62.3 328.6 62.3 343.5 69.2L562.1 170.2C570.6 174.1 576 182.6 576 192C576 201.4 570.6 209.9 562.1 213.8L343.5 314.8C328.6 321.7 311.4 321.7 296.5 314.8L77.9 213.8C69.4 209.8 64 201.3 64 192C64 182.7 69.4 174.1 77.9 170.2L296.5 69.2zM112.1 282.4L276.4 358.3C304.1 371.1 336 371.1 363.7 358.3L528 282.4L562.1 298.2C570.6 302.1 576 310.6 576 320C576 329.4 570.6 337.9 562.1 341.8L343.5 442.8C328.6 449.7 311.4 449.7 296.5 442.8L77.9 341.8C69.4 337.8 64 329.3 64 320C64 310.7 69.4 302.1 77.9 298.2L112 282.4zM77.9 426.2L112 410.4L276.3 486.3C304 499.1 335.9 499.1 363.6 486.3L527.9 410.4L562 426.2C570.5 430.1 575.9 438.6 575.9 448C575.9 457.4 570.5 465.9 562 469.8L343.4 570.8C328.5 577.7 311.3 577.7 296.4 570.8L77.9 469.8C69.4 465.8 64 457.3 64 448C64 438.7 69.4 430.1 77.9 426.2z"/>
  </symbol>

  <!-- Recentrer / Crosshairs — FontAwesome, viewBox 640x640 -->
  <symbol id="icon-recentrer" viewBox="0 0 640 640">
    <path fill="currentColor" d="M320 48C337.7 48 352 62.3 352 80L352 98.3C450.1 112.3 527.7 189.9 541.7 288L560 288C577.7 288 592 302.3 592 320C592 337.7 577.7 352 560 352L541.7 352C527.7 450.1 450.1 527.7 352 541.7L352 560C352 577.7 337.7 592 320 592C302.3 592 288 577.7 288 560L288 541.7C189.9 527.7 112.3 450.1 98.3 352L80 352C62.3 352 48 337.7 48 320C48 302.3 62.3 288 80 288L98.3 288C112.3 189.9 189.9 112.3 288 98.3L288 80C288 62.3 302.3 48 320 48zM163.2 352C175.9 414.7 225.3 464.1 288 476.8L288 464C288 446.3 302.3 432 320 432C337.7 432 352 446.3 352 464L352 476.8C414.7 464.1 464.1 414.7 476.8 352L464 352C446.3 352 432 337.7 432 320C432 302.3 446.3 288 464 288L476.8 288C464.1 225.3 414.7 175.9 352 163.2L352 176C352 193.7 337.7 208 320 208C302.3 208 288 193.7 288 176L288 163.2C225.3 175.9 175.9 225.3 163.2 288L176 288C193.7 288 208 302.3 208 320C208 337.7 193.7 352 176 352L163.2 352zM320 272C346.5 272 368 293.5 368 320C368 346.5 346.5 368 320 368C293.5 368 272 346.5 272 320C272 293.5 293.5 272 320 272z"/>
  </symbol>

  <!-- ============================================================
       ICÔNES UI — ZOOM
       (caractères texte remplacés par des symboles SVG simples)
       ============================================================ -->

  <!-- Zoom In -->
  <symbol id="icon-zoom-in" viewBox="0 0 24 24">
    <path fill="currentColor" d="M19 11H13V5a1 1 0 00-2 0v6H5a1 1 0 000 2h6v6a1 1 0 002 0v-6h6a1 1 0 000-2z"/>
  </symbol>

  <!-- Zoom Out -->
  <symbol id="icon-zoom-out" viewBox="0 0 24 24">
    <path fill="currentColor" d="M5 11h14a1 1 0 010 2H5a1 1 0 010-2z"/>
  </symbol>

  <!-- ============================================================
       ICÔNES UI — EXPORT & RETOUR
       ============================================================ -->

  <!-- Export CSV — inline, viewBox 24x24, utilise stroke="currentColor" -->
  <symbol id="icon-export-csv" viewBox="0 0 24 24">
    <path stroke="currentColor" stroke-width="2" fill="none" d="M21 15v4a2 2 0 01-2 2H5a2 2 0 01-2-2v-4"/>
    <polyline stroke="currentColor" stroke-width="2" fill="none" points="7 10 12 15 17 10"/>
    <line stroke="currentColor" stroke-width="2" x1="12" y1="15" x2="12" y2="3"/>
  </symbol>

  <!-- Retour à la liste (individuals) — FontAwesome, viewBox 640x640 -->
  <symbol id="icon-retour" viewBox="0 0 640 640">
    <path fill="currentColor" d="M112 320C112 205.1 205.1 112 320 112C434.9 112 528 205.1 528 320C528 434.9 434.9 528 320 528C205.1 528 112 434.9 112 320zM576 320C576 178.6 461.4 64 320 64C178.6 64 64 178.6 64 320C64 461.4 178.6 576 320 576C461.4 576 576 461.4 576 320zM188.7 308.7C182.5 314.9 182.5 325.1 188.7 331.3L292.7 435.3C297.3 439.9 304.2 441.2 310.1 438.8C316 436.4 320 430.5 320 424L320 352L424 352C437.3 352 448 341.3 448 328L448 312C448 298.7 437.3 288 424 288L320 288L320 216C320 209.5 316.1 203.7 310.1 201.2C304.1 198.7 297.2 200.1 292.7 204.7L188.7 308.7z"/>
  </symbol>

  <!-- ============================================================
       ICÔNES PLEIN ÉCRAN — Injectées en JS via OpenLayers
       (centralisées ici pour tout avoir au même endroit)
       ============================================================ -->

  <!-- Plein écran — entrer (FontAwesome expand-arrows-alt) -->
  <symbol id="icon-fullscreen-enter" viewBox="0 0 448 512">
    <path fill="currentColor" d="M448 344v112a23.94 23.94 0 0 1-24 24H312c-21.39 0-32.09-25.9-17-41l36.2-36.2L224 295.6 116.77 402.9 153 439c15.09 15.1 4.39 41-17 41H24a23.94 23.94 0 0 1-24-24V344c0-21.4 25.89-32.1 41-17l36.19 36.2L184.46 256 77.18 148.7 41 185c-15.1 15.1-41 4.4-41-17V56a23.94 23.94 0 0 1 24-24h112c21.39 0 32.09 25.9 17 41l-36.2 36.2L224 216.4l107.23-107.3L295 73c-15.09-15.1-4.39-41 17-41h112a23.94 23.94 0 0 1 24 24v112c0 21.4-25.89 32.1-41 17l-36.19-36.2L263.54 256l107.28 107.3L407 327.1c15.1-15.2 41-4.5 41 16.9z"/>
  </symbol>

  <!-- Plein écran — quitter (compress arrows, viewBox 24x24) -->
  <symbol id="icon-fullscreen-exit" viewBox="0 0 24 24">
    <path fill="currentColor" d="M5 16h3v3h2v-5H5v2zm3-8H5v2h5V5H8v3zm6 11h2v-3h3v-2h-5v5zm2-11V5h-2v5h5V8h-3z"/>
  </symbol>

  <!-- ============================================================
       ILLUSTRATIONS DYNAMIQUES — Fiche individu
       (fill="currentColor" → colorisé via JS : useElement.style.color)
       ============================================================ -->

  <!-- Collier GPS — chemin original de l'illustration bouquetin -->
  <symbol id="icon-collier" viewBox="0 0 193.23 103.56">
    <path fill="currentColor" d="M3.55,21.41c-1.09-.1-2.64,5-3.26,9.48-.47,3.34-.16,5.43-.18,9.48-.06,12.98-.15,11.27-.09,13.76.13,5.31.26,10.19,1.39,16.51.7,3.9,1.05,5.84,1.83,7.64,1.93,4.41,5.58,7.92,13.76,12.23,13.71,7.22,26.37,9.27,27.52,9.48,29.52,5.31,52.87,3.28,58.39,2.75,12.25-1.18,21.01-3.08,29.35-4.89,12.68-2.75,26.16-6.53,39.75-13.45,0,0,9.4-4.79,16.2-13.15,4.1-5.04,4.5-8.07,4.59-9.22.1-1.45-.1-2.55,0-6.37.07-2.71.24-5.2.28-5.2.09,0-.26,10.07-.26,10.07-.02,0,.16-5.7.27-13.47.14-9.54.2-14.31.04-17.7-.61-12.58-2.59-18.73-3.7-21.71-1.61-4.34-3.51-7.81-3.97-7.64-.54.19,2.22,4.97,1.22,10.7-1.21,6.95-6.78,11.74-9.48,14.06-1.42,1.23-4.11,3.06-9.48,6.73-2.69,1.84-4.05,2.75-5.17,3.42-4.97,2.95-9.32,4.02-13.78,5.14-18.93,4.77-15.75,4.55-21.1,5.5-9.93,1.77-17.57,3.26-20.48,3.67-13.42,1.87-23.54,2.25-32.41,2.55-25.63.87-37.62-1.2-40.99-1.82-2.82-.52-5.87-1.31-5.89-1.21-.1.41,48.26,13.24,48.41,12.71.11-.38-23.62-9.01-38.8-10.86-5.67-.69-8.3-1.34-13.48-2.9-4.46-1.33-6.69-1.99-9.17-3.67-4.51-3.05-6.83-7.02-7.64-8.56-3.86-7.3-2.43-13.95-3.67-14.06Z"/>
  </symbol>

  <!-- Oreille — chemin unique, utilisé 2 fois (gauche + droite) via <use> -->
  <symbol id="icon-oreille" viewBox="0 0 57.32 80.86">
    <path fill="currentColor" d="M43.19,19.05c1.08,5.6,3.83,10.2,7.36,14.57,2.56,3.16,5.88,5.3,6.23,9.72-.41,6.08,3.29,29.3-4.43,30.23,0,0-46.77,7.29-46.77,7.29-3.79.04-5.12-2.1-5.36-5.6-.72-10.34.57-21.5,0-31.92.22-4.49,4.56-6.7,7.22-9.71,7.88-7.28,6.39-18.75,10.61-27.53,4.84-7.07,19.1-8.9,21.38-.63"/>
  </symbol>

</svg>
